{
  "accessors": [
    {
      "bufferView": 3,
      "componentType": 5126,
      "count": 602,
      "max": [
        3.4728610515594482,
        5.88468599319458,
        2.597938060760498
      ],
      "min": [
        -3.4728620052337646,
        -0.014322999864816666,
        -2.6174941062927246
      ],
      "type": "VEC3"
    },
    {
      "bufferView": 3,
      "byteOffset": 7224,
      "componentType": 5126,
      "count": 602,
      "max": [
        0.999412477016449,
        1.0,
        0.99925696849823
      ],
      "min": [
        -0.999412477016449,
        -1.0,
        -0.9988817572593689
      ],
      "type": "VEC3"
    },
    {
      "bufferView": 2,
      "componentType": 5126,
      "count": 602,
      "max": [
        0.9909219741821289,
        0.9955000281333923
      ],
      "min": [
        0.002167999977245927,
        0.0038920044898986816
      ],
      "type": "VEC2"
    },
    {
      "bufferView": 1,
      "componentType": 5125,
      "count": 2784,
      "type": "SCALAR"
    },
    {
      "bufferView": 5,
      "componentType": 5126,
      "count": 16,
      "max": [
        1.0,
        1.0,
        0.013684069737792015,
        0.0,
        0.013699620962142944,
        1.0,
        1.0,
        0.0,
        1.0,
        7.50118269934319e-05,
        1.0,
        0.0,
        0.0972113236784935,
        0.7175040245056152,
        1.4552129812273051e-07,
        1.0
      ],
      "min": [
        -2.6156942931065963e-11,
        -1.0,
        -0.013684069737792015,
        0.0,
        -0.013699620962142944,
        -0.013685363344848156,
        0.0,
        0.0,
        -1.0,
        -1.0,
        -0.013700945302844048,
        0.0,
        -0.0972113236784935,
        -3.882189989089966,
        -2.0946290493011475,
        1.0
      ],
      "type": "MAT4"
    },
    {
      "bufferView": 0,
      "componentType": 5123,
      "count": 602,
      "type": "VEC4"
    },
    {
      "bufferView": 4,
      "componentType": 5126,
      "count": 602,
      "max": [
        1.0,
        0.5,
        0.0,
        0.0
      ],
      "min": [
        0.5,
        0.0,
        0.0,
        0.0
      ],
      "type": "VEC4"
    },
    {
      "bufferView": 6,
      "componentType": 5126,
      "count": 60,
      "max": [
        2.4583332538604736
      ],
      "min": [
        0.0
      ],
      "type": "SCALAR"
    },
    {
      "bufferView": 7,
      "componentType": 5126,
      "count": 60,
      "max": [
        0.0,
        0.800000011920929,
        1.4210854715202004e-14
      ],
      "min": [
        0.0,
        0.5676360130310059,
        -1.4210854715202004e-14
      ],
      "type": "VEC3"
    },
    {
      "bufferView": 6,
      "byteOffset": 240,
      "componentType": 5126,
      "count": 60,
      "max": [
        2.4583332538604736
      ],
      "min": [
        0.0
      ],
      "type": "SCALAR"
    },
    {
      "bufferView": 8,
      "componentType": 5126,
      "count": 60,
      "max": [
        0.022522594779729843,
        0.00030460470588877797,
        0.017449580132961273,
        0.9999337196350098
      ],
      "min": [
        -0.017449580132961273,
        -0.00030460470588877797,
        -0.017449580132961273,
        0.9996954202651978
      ],
      "type": "VEC4"
    },
    {
      "bufferView": 6,
      "byteOffset": 480,
      "componentType": 5126,
      "count": 59,
      "max": [
        2.4583332538604736
      ],
      "min": [
        0.0
      ],
      "type": "SCALAR"
    },
    {
      "bufferView": 7,
      "byteOffset": 720,
      "componentType": 5126,
      "count": 59,
      "max": [
        1.0,
        1.0,
        1.0
      ],
      "min": [
        0.9999999403953552,
        0.9999999403953552,
        0.9999999403953552
      ],
      "type": "VEC3"
    },
    {
      "bufferView": 6,
      "byteOffset": 716,
      "componentType": 5126,
      "count": 60,
      "max": [
        2.4583332538604736
      ],
      "min": [
        0.0
      ],
      "type": "SCALAR"
    },
    {
      "bufferView": 7,
      "byteOffset": 1428,
      "componentType": 5126,
      "count": 60,
      "max": [
        1.1175870895385742e-08,
        1.260000228881836,
        3.725304509316629e-09
      ],
      "min": [
        -1.1175870895385742e-08,
        1.2599997520446777,
        -3.725276087607199e-09
      ],
      "type": "VEC3"
    },
    {
      "bufferView": 6,
      "byteOffset": 956,
      "componentType": 5126,
      "count": 60,
      "max": [
        2.4583332538604736
      ],
      "min": [
        0.0
      ],
      "type": "SCALAR"
    },
    {
      "bufferView": 8,
      "byteOffset": 960,
      "componentType": 5126,
      "count": 60,
      "max": [
        0.034719519317150116,
        0.000615436933003366,
        0.03022187203168869,
        0.999822199344635
      ],
      "min": [
        -0.0262245275080204,
        -0.0006087168003432453,
        -0.029903143644332886,
        0.9991989731788635
      ],
      "type": "VEC4"
    },
    {
      "bufferView": 6,
      "byteOffset": 1196,
      "componentType": 5126,
      "count": 59,
      "max": [
        2.4583332538604736
      ],
      "min": [
        0.0
      ],
      "type": "SCALAR"
    },
    {
      "bufferView": 7,
      "byteOffset": 2148,
      "componentType": 5126,
      "count": 59,
      "max": [
        1.0000001192092896,
        1.0000001192092896,
        1.0000001192092896
      ],
      "min": [
        0.9999998807907104,
        0.9999998211860657,
        0.9999998807907104
      ],
      "type": "VEC3"
    },
    {
      "bufferView": 6,
      "byteOffset": 1432,
      "componentType": 5126,
      "count": 60,
      "max": [
        2.4583332538604736
      ],
      "min": [
        0.0
      ],
      "type": "SCALAR"
    },
    {
      "bufferView": 7,
      "byteOffset": 2856,
      "componentType": 5126,
      "count": 60,
      "max": [
        2.9802322387695313e-08,
        1.5400002002716064,
        2.9802293965985882e-08
      ],
      "min": [
        -4.470348358154297e-08,
        1.5399994850158691,
        -2.980235080940474e-08
      ],
      "type": "VEC3"
    },
    {
      "bufferView": 6,
      "byteOffset": 1672,
      "componentType": 5126,
      "count": 60,
      "max": [
        2.4583332538604736
      ],
      "min": [
        0.0
      ],
      "type": "SCALAR"
    },
    {
      "bufferView": 8,
      "byteOffset": 1920,
      "componentType": 5126,
      "count": 60,
      "max": [
        0.03500785306096077,
        0.004873019643127918,
        0.027013976126909256,
        0.9998893141746521
      ],
      "min": [
        -0.005957343149930239,
        -0.004908373579382896,
        -0.015835046768188477,
        0.9993870854377747
      ],
      "type": "VEC4"
    },
    {
      "bufferView": 6,
      "byteOffset": 1912,
      "componentType": 5126,
      "count": 60,
      "max": [
        2.4583332538604736
      ],
      "min": [
        0.0
      ],
      "type": "SCALAR"
    },
    {
      "bufferView": 7,
      "byteOffset": 3576,
      "componentType": 5126,
      "count": 60,
      "max": [
        1.0000001192092896,
        1.0000001192092896,
        1.0000001192092896
      ],
      "min": [
        0.9999997615814209,
        0.9999998807907104,
        0.9999998807907104
      ],
      "type": "VEC3"
    },
    {
      "bufferView": 6,
      "byteOffset": 2152,
      "componentType": 5126,
      "count": 60,
      "max": [
        2.4583332538604736
      ],
      "min": [
        0.0
      ],
      "type": "SCALAR"
    },
    {
      "bufferView": 7,
      "byteOffset": 4296,
      "componentType": 5126,
      "count": 60,
      "max": [
        8.940696716308594e-08,
        0.28219056129455566,
        8.940736506701796e-08
      ],
      "min": [
        -5.960464477539063e-08,
        0.28218960762023926,
        -4.470308567761094e-08
      ],
      "type": "VEC3"
    },
    {
      "bufferView": 6,
      "byteOffset": 2392,
      "componentType": 5126,
      "count": 60,
      "max": [
        2.4583332538604736
      ],
      "min": [
        0.0
      ],
      "type": "SCALAR"
    },
    {
      "bufferView": 8,
      "byteOffset": 2880,
      "componentType": 5126,
      "count": 60,
      "max": [
        0.022554093971848488,
        0.0070964922197163105,
        0.0038687067572027445,
        0.9999850988388062
      ],
      "min": [
        -0.01665952242910862,
        -0.007094534579664469,
        -0.0038679344579577446,
        0.9997456073760986
      ],
      "type": "VEC4"
    },
    {
      "bufferView": 6,
      "byteOffset": 2632,
      "componentType": 5126,
      "count": 60,
      "max": [
        2.4583332538604736
      ],
      "min": [
        0.0
      ],
      "type": "SCALAR"
    },
    {
      "bufferView": 7,
      "byteOffset": 5016,
      "componentType": 5126,
      "count": 60,
      "max": [
        1.0000001192092896,
        1.0000001192092896,
        1.0000001192092896
      ],
      "min": [
        0.9999998211860657,
        0.9999998807907104,
        0.9999998807907104
      ],
      "type": "VEC3"
    },
    {
      "bufferView": 6,
      "byteOffset": 2872,
      "componentType": 5126,
      "count": 60,
      "max": [
        2.4583332538604736
      ],
      "min": [
        0.0
      ],
      "type": "SCALAR"
    },
    {
      "bufferView": 7,
      "byteOffset": 5736,
      "componentType": 5126,
      "count": 60,
      "max": [
        -1.3330405950546265,
        -0.009999734349548817,
        -0.07261597365140915
      ],
      "min": [
        -1.3330410718917847,
        -0.01000021118670702,
        -0.07261603325605392
      ],
      "type": "VEC3"
    },
    {
      "bufferView": 6,
      "byteOffset": 3112,
      "componentType": 5126,
      "count": 60,
      "max": [
        2.4583332538604736
      ],
      "min": [
        0.0
      ],
      "type": "SCALAR"
    },
    {
      "bufferView": 8,
      "byteOffset": 3840,
      "componentType": 5126,
      "count": 60,
      "max": [
        -0.4932628571987152,
        0.45423784852027893,
        0.6816433072090149,
        0.3263002932071686
      ],
      "min": [
        -0.5251429677009583,
        0.4261605143547058,
        0.6542016267776489,
        0.2852431833744049
      ],
      "type": "VEC4"
    },
    {
      "bufferView": 6,
      "byteOffset": 3352,
      "componentType": 5126,
      "count": 60,
      "max": [
        2.4583332538604736
      ],
      "min": [
        0.0
      ],
      "type": "SCALAR"
    },
    {
      "bufferView": 7,
      "byteOffset": 6456,
      "componentType": 5126,
      "count": 60,
      "max": [
        1.0,
        1.0000001192092896,
        1.0
      ],
      "min": [
        0.9999997019767761,
        0.9999997615814209,
        0.9999997019767761
      ],
      "type": "VEC3"
    },
    {
      "bufferView": 6,
      "byteOffset": 3592,
      "componentType": 5126,
      "count": 60,
      "max": [
        2.4583332538604736
      ],
      "min": [
        0.0
      ],
      "type": "SCALAR"
    },
    {
      "bufferView": 7,
      "byteOffset": 7176,
      "componentType": 5126,
      "count": 60,
      "max": [
        6.945702324401282e-08,
        0.5469989776611328,
        1.0578725806453804e-07
      ],
      "min": [
        -8.241197235747677e-08,
        0.5469985008239746,
        -3.760076765502163e-07
      ],
      "type": "VEC3"
    },
    {
      "bufferView": 6,
      "byteOffset": 3832,
      "componentType": 5126,
      "count": 60,
      "max": [
        2.4583332538604736
      ],
      "min": [
        0.0
      ],
      "type": "SCALAR"
    },
    {
      "bufferView": 8,
      "byteOffset": 4800,
      "componentType": 5126,
      "count": 60,
      "max": [
        0.042431484907865524,
        0.004291957709938288,
        0.16698434948921204,
        0.9908618927001953
      ],
      "min": [
        0.00044090129085816443,
        -0.0216060820966959,
        0.12952280044555664,
        0.9848091006278992
      ],
      "type": "VEC4"
    },
    {
      "bufferView": 6,
      "byteOffset": 4072,
      "componentType": 5126,
      "count": 59,
      "max": [
        2.4583332538604736
      ],
      "min": [
        0.0
      ],
      "type": "SCALAR"
    },
    {
      "bufferView": 7,
      "byteOffset": 7896,
      "componentType": 5126,
      "count": 59,
      "max": [
        1.0000001192092896,
        1.0000001192092896,
        1.0
      ],
      "min": [
        0.9999998807907104,
        0.9999998807907104,
        0.9999997615814209
      ],
      "type": "VEC3"
    },
    {
      "bufferView": 6,
      "byteOffset": 4308,
      "componentType": 5126,
      "count": 60,
      "max": [
        2.4583332538604736
      ],
      "min": [
        0.0
      ],
      "type": "SCALAR"
    },
    {
      "bufferView": 7,
      "byteOffset": 8604,
      "componentType": 5126,
      "count": 60,
      "max": [
        2.1028080254836823e-07,
        0.45350825786590576,
        3.8812419234091067e-07
      ],
      "min": [
        -2.6655635565475677e-07,
        0.453507661819458,
        -3.2713154496377683e-07
      ],
      "type": "VEC3"
    },
    {
      "bufferView": 6,
      "byteOffset": 4548,
      "componentType": 5126,
      "count": 60,
      "max": [
        2.4583332538604736
      ],
      "min": [
        0.0
      ],
      "type": "SCALAR"
    },
    {
      "bufferView": 8,
      "byteOffset": 5760,
      "componentType": 5126,
      "count": 60,
      "max": [
        0.0664554014801979,
        0.026126321405172348,
        0.17013078927993774,
        0.9892941117286682
      ],
      "min": [
        0.0304880253970623,
        -0.0122280428186059,
        0.13289375603199005,
        0.9831020832061768
      ],
      "type": "VEC4"
    },
    {
      "bufferView": 6,
      "byteOffset": 4788,
      "componentType": 5126,
      "count": 60,
      "max": [
        2.4583332538604736
      ],
      "min": [
        0.0
      ],
      "type": "SCALAR"
    },
    {
      "bufferView": 7,
      "byteOffset": 9324,
      "componentType": 5126,
      "count": 60,
      "max": [
        1.0,
        1.0000001192092896,
        1.0000001192092896
      ],
      "min": [
        0.9999997615814209,
        0.9999997615814209,
        0.9999998807907104
      ],
      "type": "VEC3"
    },
    {
      "bufferView": 6,
      "byteOffset": 5028,
      "componentType": 5126,
      "count": 60,
      "max": [
        2.4583332538604736
      ],
      "min": [
        0.0
      ],
      "type": "SCALAR"
    },
    {
      "bufferView": 7,
      "byteOffset": 10044,
      "componentType": 5126,
      "count": 60,
      "max": [
        3.288396897005441e-07,
        0.40000012516975403,
        2.0008053525089053e-07
      ],
      "min": [
        -3.2675018246663967e-07,
        0.3999992907047272,
        -2.8319917078079015e-07
      ],
      "type": "VEC3"
    },
    {
      "bufferView": 6,
      "byteOffset": 5268,
      "componentType": 5126,
      "count": 60,
      "max": [
        2.4583332538604736
      ],
      "min": [
        0.0
      ],
      "type": "SCALAR"
    },
    {
      "bufferView": 8,
      "byteOffset": 6720,
      "componentType": 5126,
      "count": 60,
      "max": [
        0.0739123672246933,
        0.05477413162589073,
        0.1709456890821457,
        0.9882732033729553
      ],
      "min": [
        0.04873710498213768,
        0.006051681004464626,
        0.13326495885849,
        0.9824855923652649
      ],
      "type": "VEC4"
    },
    {
      "bufferView": 6,
      "byteOffset": 5508,
      "componentType": 5126,
      "count": 60,
      "max": [
        2.4583332538604736
      ],
      "min": [
        0.0
      ],
      "type": "SCALAR"
    },
    {
      "bufferView": 7,
      "byteOffset": 10764,
      "componentType": 5126,
      "count": 60,
      "max": [
        1.0000001192092896,
        1.0000001192092896,
        1.0
      ],
      "min": [
        0.9999998211860657,
        0.9999997019767761,
        0.9999998211860657
      ],
      "type": "VEC3"
    },
    {
      "bufferView": 6,
      "byteOffset": 5748,
      "componentType": 5126,
      "count": 60,
      "max": [
        2.4583332538604736
      ],
      "min": [
        0.0
      ],
      "type": "SCALAR"
    },
    {
      "bufferView": 7,
      "byteOffset": 11484,
      "componentType": 5126,
      "count": 60,
      "max": [
        1.3330410718917847,
        -0.009999734349548817,
        -0.07261598855257034
      ],
      "min": [
        1.3330405950546265,
        -0.010000213980674744,
        -0.07261603325605392
      ],
      "type": "VEC3"
    },
    {
      "bufferView": 6,
      "byteOffset": 5988,
      "componentType": 5126,
      "count": 60,
      "max": [
        2.4583332538604736
      ],
      "min": [
        0.0
      ],
      "type": "SCALAR"
    },
    {
      "bufferView": 8,
      "byteOffset": 7680,
      "componentType": 5126,
      "count": 60,
      "max": [
        -0.4930955171585083,
        -0.4260895550251007,
        -0.6543327569961548,
        0.3261694610118866
      ],
      "min": [
        -0.5255783796310425,
        -0.4543304741382599,
        -0.6813507676124573,
        0.285372793674469
      ],
      "type": "VEC4"
    },
    {
      "bufferView": 6,
      "byteOffset": 6228,
      "componentType": 5126,
      "count": 60,
      "max": [
        2.4583332538604736
      ],
      "min": [
        0.0
      ],
      "type": "SCALAR"
    },
    {
      "bufferView": 7,
      "byteOffset": 12204,
      "componentType": 5126,
      "count": 60,
      "max": [
        1.0,
        1.0000001192092896,
        0.9999999403953552
      ],
      "min": [
        0.9999997019767761,
        0.9999997615814209,
        0.9999997615814209
      ],
      "type": "VEC3"
    },
    {
      "bufferView": 6,
      "byteOffset": 6468,
      "componentType": 5126,
      "count": 60,
      "max": [
        2.4583332538604736
      ],
      "min": [
        0.0
      ],
      "type": "SCALAR"
    },
    {
      "bufferView": 7,
      "byteOffset": 12924,
      "componentType": 5126,
      "count": 60,
      "max": [
        5.260345048441195e-08,
        0.5469989776611328,
        1.0650535386957927e-07
      ],
      "min": [
        -9.637641085191717e-08,
        0.5469985604286194,
        -3.7367365735008207e-07
      ],
      "type": "VEC3"
    },
    {
      "bufferView": 6,
      "byteOffset": 6708,
      "componentType": 5126,
      "count": 60,
      "max": [
        2.4583332538604736
      ],
      "min": [
        0.0
      ],
      "type": "SCALAR"
    },
    {
      "bufferView": 8,
      "byteOffset": 8640,
      "componentType": 5126,
      "count": 60,
      "max": [
        0.04243097081780434,
        0.021606164053082466,
        -0.1295541673898697,
        0.9908443689346313
      ],
      "min": [
        0.00046814512461423874,
        -0.0045815883204340935,
        -0.16714437305927277,
        0.9847974181175232
      ],
      "type": "VEC4"
    },
    {
      "bufferView": 6,
      "byteOffset": 6948,
      "componentType": 5126,
      "count": 60,
      "max": [
        2.4583332538604736
      ],
      "min": [
        0.0
      ],
      "type": "SCALAR"
    },
    {
      "bufferView": 7,
      "byteOffset": 13644,
      "componentType": 5126,
      "count": 60,
      "max": [
        1.0000001192092896,
        1.0000001192092896,
        1.0
      ],
      "min": [
        0.9999998807907104,
        0.9999998807907104,
        0.9999997615814209
      ],
      "type": "VEC3"
    },
    {
      "bufferView": 6,
      "byteOffset": 7188,
      "componentType": 5126,
      "count": 60,
      "max": [
        2.4583332538604736
      ],
      "min": [
        0.0
      ],
      "type": "SCALAR"
    },
    {
      "bufferView": 7,
      "byteOffset": 14364,
      "componentType": 5126,
      "count": 60,
      "max": [
        3.261610004301474e-07,
        0.4535081386566162,
        3.8812419234091067e-07
      ],
      "min": [
        -2.1028080254836823e-07,
        0.453507661819458,
        -3.2713154496377683e-07
      ],
      "type": "VEC3"
    },
    {
      "bufferView": 6,
      "byteOffset": 7428,
      "componentType": 5126,
      "count": 60,
      "max": [
        2.4583332538604736
      ],
      "min": [
        0.0
      ],
      "type": "SCALAR"
    },
    {
      "bufferView": 8,
      "byteOffset": 9600,
      "componentType": 5126,
      "count": 60,
      "max": [
        0.06645537912845612,
        0.012228052131831646,
        -0.13289427757263184,
        0.9892805814743042
      ],
      "min": [
        0.030530724674463272,
        -0.026158638298511505,
        -0.1702176183462143,
        0.9831020832061768
      ],
      "type": "VEC4"
    },
    {
      "bufferView": 6,
      "byteOffset": 7668,
      "componentType": 5126,
      "count": 60,
      "max": [
        2.4583332538604736
      ],
      "min": [
        0.0
      ],
      "type": "SCALAR"
    },
    {
      "bufferView": 7,
      "byteOffset": 15084,
      "componentType": 5126,
      "count": 60,
      "max": [
        1.0000001192092896,
        1.0000001192092896,
        1.0000001192092896
      ],
      "min": [
        0.9999998807907104,
        0.9999997615814209,
        0.9999998211860657
      ],
      "type": "VEC3"
    },
    {
      "bufferView": 6,
      "byteOffset": 7908,
      "componentType": 5126,
      "count": 60,
      "max": [
        2.4583332538604736
      ],
      "min": [
        0.0
      ],
      "type": "SCALAR"
    },
    {
      "bufferView": 7,
      "byteOffset": 15804,
      "componentType": 5126,
      "count": 60,
      "max": [
        2.7041707539865456e-07,
        0.4000000059604645,
        2.0171363246390683e-07
      ],
      "min": [
        -2.6924061558020185e-07,
        0.3999994099140167,
        -2.831995686847222e-07
      ],
      "type": "VEC3"
    },
    {
      "bufferView": 6,
      "byteOffset": 8148,
      "componentType": 5126,
      "count": 60,
      "max": [
        2.4583332538604736
      ],
      "min": [
        0.0
      ],
      "type": "SCALAR"
    },
    {
      "bufferView": 8,
      "byteOffset": 10560,
      "componentType": 5126,
      "count": 60,
      "max": [
        0.07391230016946793,
        -0.006052176468074322,
        -0.1332649290561676,
        0.9882720708847046
      ],
      "min": [
        0.04879811406135559,
        -0.054642584174871445,
        -0.17094562947750092,
        0.9824855923652649
      ],
      "type": "VEC4"
    },
    {
      "bufferView": 6,
      "byteOffset": 8388,
      "componentType": 5126,
      "count": 59,
      "max": [
        2.4583332538604736
      ],
      "min": [
        0.0
      ],
      "type": "SCALAR"
    },
    {
      "bufferView": 7,
      "byteOffset": 16524,
      "componentType": 5126,
      "count": 59,
      "max": [
        1.0,
        1.0000001192092896,
        1.0000001192092896
      ],
      "min": [
        0.9999996423721313,
        0.9999997019767761,
        0.9999998211860657
      ],
      "type": "VEC3"
    },
    {
      "bufferView": 6,
      "byteOffset": 8624,
      "componentType": 5126,
      "count": 60,
      "max": [
        2.4583332538604736
      ],
      "min": [
        0.0
      ],
      "type": "SCALAR"
    },
    {
      "bufferView": 7,
      "byteOffset": 17232,
      "componentType": 5126,
      "count": 60,
      "max": [
        0.0,
        -0.4749250113964081,
        0.012965000234544277
      ],
      "min": [
        0.0,
        -0.7175040245056152,
        0.0
      ],
      "type": "VEC3"
    },
    {
      "bufferView": 6,
      "byteOffset": 8864,
      "componentType": 5126,
      "count": 60,
      "max": [
        2.4583332538604736
      ],
      "min": [
        0.0
      ],
      "type": "SCALAR"
    },
    {
      "bufferView": 8,
      "byteOffset": 11520,
      "componentType": 5126,
      "count": 60,
      "max": [
        -1.6585887863129756e-07,
        0.0,
        0.0,
        1.0
      ],
      "min": [
        -0.01411717664450407,
        0.0,
        0.0,
        0.9999003410339355
      ],
      "type": "VEC4"
    },
    {
      "bufferView": 6,
      "byteOffset": 9104,
      "componentType": 5126,
      "count": 50,
      "max": [
        2.4583332538604736
      ],
      "min": [
        0.0
      ],
      "type": "SCALAR"
    },
    {
      "bufferView": 7,
      "byteOffset": 17952,
      "componentType": 5126,
      "count": 50,
      "max": [
        1.0,
        0.9999999403953552,
        0.9999999403953552
      ],
      "min": [
        1.0,
        0.9999998807907104,
        0.9999998807907104
      ],
      "type": "VEC3"
    }
  ],
  "animations": [
    {
      "channels": [
        {
          "sampler": 0,
          "target": {
            "node": 10,
            "path": "translation"
          }
        },
        {
          "sampler": 1,
          "target": {
            "node": 10,
            "path": "rotation"
          }
        },
        {
          "sampler": 2,
          "target": {
            "node": 10,
            "path": "scale"
          }
        },
        {
          "sampler": 3,
          "target": {
            "node": 11,
            "path": "translation"
          }
        },
        {
          "sampler": 4,
          "target": {
            "node": 11,
            "path": "rotation"
          }
        },
        {
          "sampler": 5,
          "target": {
            "node": 11,
            "path": "scale"
          }
        },
        {
          "sampler": 6,
          "target": {
            "node": 12,
            "path": "translation"
          }
        },
        {
          "sampler": 7,
          "target": {
            "node": 12,
            "path": "rotation"
          }
        },
        {
          "sampler": 8,
          "target": {
            "node": 12,
            "path": "scale"
          }
        },
        {
          "sampler": 9,
          "target": {
            "node": 13,
            "path": "translation"
          }
        },
        {
          "sampler": 10,
          "target": {
            "node": 13,
            "path": "rotation"
          }
        },
        {
          "sampler": 11,
          "target": {
            "node": 13,
            "path": "scale"
          }
        },
        {
          "sampler": 12,
          "target": {
            "node": 14,
            "path": "translation"
          }
        },
        {
          "sampler": 13,
          "target": {
            "node": 14,
            "path": "rotation"
          }
        },
        {
          "sampler": 14,
          "target": {
            "node": 14,
            "path": "scale"
          }
        },
        {
          "sampler": 15,
          "target": {
            "node": 15,
            "path": "translation"
          }
        },
        {
          "sampler": 16,
          "target": {
            "node": 15,
            "path": "rotation"
          }
        },
        {
          "sampler": 17,
          "target": {
            "node": 15,
            "path": "scale"
          }
        },
        {
          "sampler": 18,
          "target": {
            "node": 16,
            "path": "translation"
          }
        },
        {
          "sampler": 19,
          "target": {
            "node": 16,
            "path": "rotation"
          }
        },
        {
          "sampler": 20,
          "target": {
            "node": 16,
            "path": "scale"
          }
        },
        {
          "sampler": 21,
          "target": {
            "node": 17,
            "path": "translation"
          }
        },
        {
          "sampler": 22,
          "target": {
            "node": 17,
            "path": "rotation"
          }
        },
        {
          "sampler": 23,
          "target": {
            "node": 17,
            "path": "scale"
          }
        },
        {
          "sampler": 24,
          "target": {
            "node": 18,
            "path": "translation"
          }
        },
        {
          "sampler": 25,
          "target": {
            "node": 18,
            "path": "rotation"
          }
        },
        {
          "sampler": 26,
          "target": {
            "node": 18,
            "path": "scale"
          }
        },
        {
          "sampler": 27,
          "target": {
            "node": 19,
            "path": "translation"
          }
        },
        {
          "sampler": 28,
          "target": {
            "node": 19,
            "path": "rotation"
          }
        },
        {
          "sampler": 29,
          "target": {
            "node": 19,
            "path": "scale"
          }
        },
        {
          "sampler": 30,
          "target": {
            "node": 20,
            "path": "translation"
          }
        },
        {
          "sampler": 31,
          "target": {
            "node": 20,
            "path": "rotation"
          }
        },
        {
          "sampler": 32,
          "target": {
            "node": 20,
            "path": "scale"
          }
        },
        {
          "sampler": 33,
          "target": {
            "node": 21,
            "path": "translation"
          }
        },
        {
          "sampler": 34,
          "target": {
            "node": 21,
            "path": "rotation"
          }
        },
        {
          "sampler": 35,
          "target": {
            "node": 21,
            "path": "scale"
          }
        },
        {
          "sampler": 36,
          "target": {
            "node": 22,
            "path": "translation"
          }
        },
        {
          "sampler": 37,
          "target": {
            "node": 22,
            "path": "rotation"
          }
        },
        {
          "sampler": 38,
          "target": {
            "node": 22,
            "path": "scale"
          }
        }
      ],
      "name": "idle",
      "samplers": [
        {
          "input": 7,
          "interpolation": "LINEAR",
          "output": 8
        },
        {
          "input": 9,
          "interpolation": "LINEAR",
          "output": 10
        },
        {
          "input": 11,
          "interpolation": "LINEAR",
          "output": 12
        },
        {
          "input": 13,
          "interpolation": "LINEAR",
          "output": 14
        },
        {
          "input": 15,
          "interpolation": "LINEAR",
          "output": 16
        },
        {
          "input": 17,
          "interpolation": "LINEAR",
          "output": 18
        },
        {
          "input": 19,
          "interpolation": "LINEAR",
          "output": 20
        },
        {
          "input": 21,
          "interpolation": "LINEAR",
          "output": 22
        },
        {
          "input": 23,
          "interpolation": "LINEAR",
          "output": 24
        },
        {
          "input": 25,
          "interpolation": "LINEAR",
          "output": 26
        },
        {
          "input": 27,
          "interpolation": "LINEAR",
          "output": 28
        },
        {
          "input": 29,
          "interpolation": "LINEAR",
          "output": 30
        },
        {
          "input": 31,
          "interpolation": "LINEAR",
          "output": 32
        },
        {
          "input": 33,
          "interpolation": "LINEAR",
          "output": 34
        },
        {
          "input": 35,
          "interpolation": "LINEAR",
          "output": 36
        },
        {
          "input": 37,
          "interpolation": "LINEAR",
          "output": 38
        },
        {
          "input": 39,
          "interpolation": "LINEAR",
          "output": 40
        },
        {
          "input": 41,
          "interpolation": "LINEAR",
          "output": 42
        },
        {
          "input": 43,
          "interpolation": "LINEAR",
          "output": 44
        },
        {
          "input": 45,
          "interpolation": "LINEAR",
          "output": 46
        },
        {
          "input": 47,
          "interpolation": "LINEAR",
          "output": 48
        },
        {
          "input": 49,
          "interpolation": "LINEAR",
          "output": 50
        },
        {
          "input": 51,
          "interpolation": "LINEAR",
          "output": 52
        },
        {
          "input": 53,
          "interpolation": "LINEAR",
          "output": 54
        },
        {
          "input": 55,
          "interpolation": "LINEAR",
          "output": 56
        },
        {
          "input": 57,
          "interpolation": "LINEAR",
          "output": 58
        },
        {
          "input": 59,
          "interpolation": "LINEAR",
          "output": 60
        },
        {
          "input": 61,
          "interpolation": "LINEAR",
          "output": 62
        },
        {
          "input": 63,
          "interpolation": "LINEAR",
          "output": 64
        },
        {
          "input": 65,
          "interpolation": "LINEAR",
          "output": 66
        },
        {
          "input": 67,
          "interpolation": "LINEAR",
          "output": 68
        },
        {
          "input": 69,
          "interpolation": "LINEAR",
          "output": 70
        },
        {
          "input": 71,
          "interpolation": "LINEAR",
          "output": 72
        },
        {
          "input": 73,
          "interpolation": "LINEAR",
          "output": 74
        },
        {
          "input": 75,
          "interpolation": "LINEAR",
          "output": 76
        },
        {
          "input": 77,
          "interpolation": "LINEAR",
          "output": 78
        },
        {
          "input": 79,
          "interpolation": "LINEAR",
          "output": 80
        },
        {
          "input": 81,
          "interpolation": "LINEAR",
          "output": 82
        },
        {
          "input": 83,
          "interpolation": "LINEAR",
          "output": 84
        }
      ]
    }
  ],
  "asset": {
    "extras": {
      "author": "Pixelmon_Dump (https://sketchfab.com/Pixelmon_dump)",
      "license": "CC-BY-4.0 (http://creativecommons.org/licenses/by/4.0/)",
      "source": "https://sketchfab.com/3d-models/amoonguss-d241a1b13a8a41748830084da231f95d",
      "title": "Amoonguss"
    },
    "generator": "Sketchfab-12.67.0",
    "version": "2.0"
  },
  "bufferViews": [
    {
      "buffer": 0,
      "byteLength": 4816,
      "byteStride": 8,
      "name": "shortBufferViews",
      "target": 34962
    },
    {
      "buffer": 0,
      "byteLength": 11136,
      "byteOffset": 4816,
      "name": "floatBufferViews",
      "target": 34963
    },
    {
      "buffer": 0,
      "byteLength": 4816,
      "byteOffset": 15952,
      "byteStride": 8,
      "name": "floatBufferViews",
      "target": 34962
    },
    {
      "buffer": 0,
      "byteLength": 14448,
      "byteOffset": 20768,
      "byteStride": 12,
      "name": "floatBufferViews",
      "target": 34962
    },
    {
      "buffer": 0,
      "byteLength": 9632,
      "byteOffset": 35216,
      "byteStride": 16,
      "name": "floatBufferViews",
      "target": 34962
    },
    {
      "buffer": 0,
      "byteLength": 1024,
      "byteOffset": 44848,
      "name": "floatBufferViews"
    },
    {
      "buffer": 0,
      "byteLength": 9304,
      "byteOffset": 45872,
      "name": "floatBufferViews"
    },
    {
      "buffer": 0,
      "byteLength": 18552,
      "byteOffset": 55176,
      "byteStride": 12,
      "name": "floatBufferViews"
    },
    {
      "buffer": 0,
      "byteLength": 12480,
      "byteOffset": 73728,
      "byteStride": 16,
      "name": "floatBufferViews"
    }
  ],
  "buffers": [
    {
      "byteLength": 86208,
      "uri": "scene.bin"
    }
  ],
  "images": [
    {
      "uri": "textures/Material_baseColor.png"
    }
  ],
  "materials": [
    {
      "doubleSided": true,
      "name": "Material",
      "pbrMetallicRoughness": {
        "baseColorTexture": {
          "index": 0
        },
        "metallicFactor": 0.0,
        "roughnessFactor": 0.4
      }
    }
  ],
  "meshes": [
    {
      "name": "Object_0",
      "primitives": [
        {
          "attributes": {
            "JOINTS_0": 5,
            "NORMAL": 1,
            "POSITION": 0,
            "TEXCOORD_0": 2,
            "WEIGHTS_0": 6
          },
          "indices": 3,
          "material": 0,
          "mode": 4
        }
      ]
    }
  ],
  "nodes": [
    {
      "children": [
        1
      ],
      "matrix": [
        1.0,
        0.0,
        0.0,
        0.0,
        0.0,
        2.220446049250313e-16,
        -1.0,
        0.0,
        0.0,
        1.0,
        2.220446049250313e-16,
        0.0,
        0.0,
        0.0,
        0.0,
        1.0
      ],
      "name": "Sketchfab_model"
    },
    {
      "children": [
        2
      ],
      "name": "root"
    },
    {
      "children": [
        3
      ],
      "matrix": [
        1.0,
        0.0,
        0.0,
        0.0,
        0.0,
        2.220446049250313e-16,
        1.0,
        0.0,
        0.0,
        -1.0,
        2.220446049250313e-16,
        0.0,
        0.0,
        0.0,
        0.0,
        1.0
      ],
      "name": "GLTF_SceneRootNode"
    },
    {
      "children": [
        4
      ],
      "name": "amoonguss_skeleton_16"
    },
    {
      "children": [
        5,
        7,
        6
      ],
      "name": "GLTF_created_0"
    },
    {
      "children": [
        8,
        9,
        22
      ],
      "name": "GLTF_created_0_rootJoint"
    },
    {
      "name": "amoonguss_15"
    },
    {
      "mesh": 0,
      "name": "Object_7",
      "skin": 0
    },
    {
      "name": "blender_implicit_0",
      "rotation": [
        -0.7071068286895752,
        0.0,
        0.0,
        0.7071068286895752
      ]
    },
    {
      "children": [
        10
      ],
      "name": "Root_13",
      "rotation": [
        -1.6585889284215227e-07,
        0.0,
        0.0,
        1.0
      ]
    },
    {
      "children": [
        11
      ],
      "name": "Body1_12",
      "rotation": [
        -0.017449580132961273,
        0.00030460470588877797,
        0.017449580132961273,
        0.9996954202651978
      ],
      "translation": [
        0.0,
        0.800000011920929,
        0.0
      ]
    },
    {
      "children": [
        12,
        14,
        18
      ],
      "name": "Body2_11",
      "rotation": [
        -0.020753944292664528,
        0.0005742640933021903,
        0.028215711936354637,
        0.9993862509727478
      ],
      "scale": [
        0.9999999403953552,
        0.9999999403953552,
        0.9999999403953552
      ],
      "translation": [
        0.0,
        1.2599999904632568,
        -1.4210854715202004e-14
      ]
    },
    {
      "children": [
        13
      ],
      "name": "Body3_2",
      "rotation": [
        0.0039354609325528145,
        -0.004093410912901163,
        0.02213440276682377,
        0.999738872051239
      ],
      "scale": [
        0.9999998807907104,
        1.0,
        1.0
      ],
      "translation": [
        0.0,
        1.5399999618530273,
        -2.842170943040401e-14
      ]
    },
    {
      "name": "Hat_1",
      "rotation": [
        0.005064388271421194,
        0.004275358747690916,
        0.0023308114614337683,
        0.999975323677063
      ],
      "scale": [
        0.9999999403953552,
        1.0,
        1.0
      ],
      "translation": [
        0.0,
        0.28219008445739746,
        0.0
      ]
    },
    {
      "children": [
        15
      ],
      "name": "Arm1_R_6",
      "rotation": [
        -0.521664559841156,
        0.4390721321105957,
        0.6563623547554016,
        0.3229089081287384
      ],
      "scale": [
        0.9999999403953552,
        0.9999998807907104,
        0.9999999403953552
      ],
      "translation": [
        -1.3330408334732056,
        -0.009999973699450493,
        -0.07261601090431213
      ]
    },
    {
      "children": [
        16
      ],
      "name": "Arm2_R_5",
      "rotation": [
        0.024866843596100807,
        -0.00042034644866362214,
        0.13651446998119354,
        0.990325927734375
      ],
      "translation": [
        6.988496892290641e-09,
        0.5469987392425537,
        -1.347512466054468e-07
      ]
    },
    {
      "children": [
        17
      ],
      "name": "Arm3_R_4",
      "rotation": [
        0.04318496957421303,
        0.018976997584104538,
        0.14364199340343475,
        0.9885048866271973
      ],
      "scale": [
        0.9999999403953552,
        0.9999999403953552,
        1.0
      ],
      "translation": [
        1.6645449463226214e-09,
        0.4535079002380371,
        -8.871296586221433e-08
      ]
    },
    {
      "name": "ArmHat_R_3",
      "rotation": [
        0.055252060294151306,
        0.04716652259230614,
        0.1432476043701172,
        0.987017035484314
      ],
      "scale": [
        0.9999999403953552,
        0.9999998807907104,
        0.9999998807907104
      ],
      "translation": [
        1.0448233389581674e-09,
        0.3999997675418854,
        -4.2784197518130895e-08
      ]
    },
    {
      "children": [
        19
      ],
      "name": "Arm1_L_10",
      "rotation": [
        -0.49551066756248474,
        -0.45202675461769104,
        -0.6759549975395203,
        0.30532902479171753
      ],
      "scale": [
        0.9999998807907104,
        0.9999999403953552,
        0.9999998807907104
      ],
      "translation": [
        1.3330408334732056,
        -0.009999973699450493,
        -0.07261601090431213
      ]
    },
    {
      "children": [
        20
      ],
      "name": "Arm2_L_9",
      "rotation": [
        0.02845774032175541,
        0.013988399878144264,
        -0.16535304486751556,
        0.9857245087623596
      ],
      "scale": [
        1.0,
        1.0,
        0.9999998807907104
      ],
      "translation": [
        -6.988496892290641e-09,
        0.5469987392425537,
        -1.347512466054468e-07
      ]
    },
    {
      "children": [
        21
      ],
      "name": "Arm3_L_8",
      "rotation": [
        0.04704885184764862,
        -0.007286543026566505,
        -0.1660923808813095,
        0.9849602580070496
      ],
      "scale": [
        0.9999999403953552,
        0.9999999403953552,
        1.0
      ],
      "translation": [
        -1.6645449463226214e-09,
        0.4535079002380371,
        -8.871296586221433e-08
      ]
    },
    {
      "name": "ArmHat_L_7",
      "rotation": [
        0.05774978920817375,
        -0.03604019805788994,
        -0.16249150037765503,
        0.984359085559845
      ],
      "scale": [
        0.9999998211860657,
        0.9999998807907104,
        0.9999999403953552
      ],
      "translation": [
        -1.0448233389581674e-09,
        0.3999997675418854,
        -4.2784197518130895e-08
      ]
    },
    {
      "name": "BottomFlatnesController_14",
      "rotation": [
        -1.6585887863129756e-07,
        0.0,
        0.0,
        1.0
      ],
      "scale": [
        1.0,
        0.9999999403953552,
        0.9999999403953552
      ],
      "translation": [
        0.0,
        -0.7175040245056152,
        0.0
      ]
    }
  ],
  "samplers": [
    {
      "magFilter": 9729,
      "minFilter": 9987,
      "wrapS": 10497,
      "wrapT": 10497
    }
  ],
  "scene": 0,
  "scenes": [
    {
      "name": "Sketchfab_Scene",
      "nodes": [
        0
      ]
    }
  ],
  "skins": [
    {
      "inverseBindMatrices": 4,
      "joints": [
        5,
        8,
        9,
        10,
        11,
        12,
        13,
        14,
        15,
        16,
        17,
        18,
        19,
        20,
        21,
        22
      ],
      "skeleton": 5
    }
  ],
  "textures": [
    {
      "sampler": 0,
      "source": 0
    }
  ]
}
