{
  "accessors": [
    {
      "bufferView": 3,
      "componentType": 5126,
      "count": 547,
      "max": [
        0.3347773551940918,
        0.7974839806556702,
        0.4695551097393036
      ],
      "min": [
        -0.3347773551940918,
        0.4468929171562195,
        0.25213274359703064
      ],
      "type": "VEC3"
    },
    {
      "bufferView": 3,
      "byteOffset": 6564,
      "componentType": 5126,
      "count": 547,
      "max": [
        1.0,
        0.9768027663230896,
        0.9979443550109863
      ],
      "min": [
        -0.9975264072418213,
        -0.9978669285774231,
        -0.996954083442688
      ],
      "type": "VEC3"
    },
    {
      "bufferView": 2,
      "componentType": 5126,
      "count": 547,
      "max": [
        0.9701846241950989,
        0.9903876781463623
      ],
      "min": [
        0.00924987718462944,
        0.009099721908569336
      ],
      "type": "VEC2"
    },
    {
      "bufferView": 1,
      "componentType": 5125,
      "count": 1389,
      "type": "SCALAR"
    },
    {
      "bufferView": 3,
      "byteOffset": 13128,
      "componentType": 5126,
      "count": 452,
      "max": [
        0.3377125859260559,
        0.8009089231491089,
        0.4695551097393036
      ],
      "min": [
        -0.3377125859260559,
        0.4468929171562195,
        0.24878013134002686
      ],
      "type": "VEC3"
    },
    {
      "bufferView": 3,
      "byteOffset": 18552,
      "componentType": 5126,
      "count": 452,
      "max": [
        0.9981027245521545,
        0.9975812435150146,
        0.9958704113960266
      ],
      "min": [
        -0.9981027245521545,
        -0.9945048689842224,
        -0.9989559650421143
      ],
      "type": "VEC3"
    },
    {
      "bufferView": 2,
      "byteOffset": 4376,
      "componentType": 5126,
      "count": 452,
      "max": [
        0.9701846241950989,
        0.9903876781463623
      ],
      "min": [
        0.00924987718462944,
        0.009099721908569336
      ],
      "type": "VEC2"
    },
    {
      "bufferView": 1,
      "byteOffset": 5556,
      "componentType": 5125,
      "count": 1230,
      "type": "SCALAR"
    },
    {
      "bufferView": 3,
      "byteOffset": 23976,
      "componentType": 5126,
      "count": 1897,
      "max": [
        0.6063418984413147,
        1.0104596614837646,
        0.382889986038208
      ],
      "min": [
        -0.6063418984413147,
        0.07745361328125,
        -0.4138769805431366
      ],
      "type": "VEC3"
    },
    {
      "bufferView": 3,
      "byteOffset": 46740,
      "componentType": 5126,
      "count": 1897,
      "max": [
        0.9999837875366211,
        1.0,
        0.9992929697036743
      ],
      "min": [
        -0.9999837875366211,
        -1.0,
        -0.9999996423721313
      ],
      "type": "VEC3"
    },
    {
      "bufferView": 2,
      "byteOffset": 7992,
      "componentType": 5126,
      "count": 1897,
      "max": [
        0.9598267078399658,
        0.9908757209777832
      ],
      "min": [
        0.009146599099040031,
        0.012552380561828613
      ],
      "type": "VEC2"
    },
    {
      "bufferView": 3,
      "byteOffset": 69504,
      "componentType": 5126,
      "count": 1897,
      "max": [
        0.024505577981472015,
        0.08152800798416138,
        0.001668483018875122
      ],
      "min": [
        -0.024505577981472015,
        -0.0018705129623413086,
        -0.02428862452507019
      ],
      "type": "VEC3"
    },
    {
      "bufferView": 3,
      "byteOffset": 92268,
      "componentType": 5126,
      "count": 1897,
      "max": [
        0.4998791813850403,
        0.3636205494403839,
        0.625009298324585
      ],
      "min": [
        -0.4998791813850403,
        -0.12692278623580933,
        -0.3517964482307434
      ],
      "type": "VEC3"
    },
    {
      "bufferView": 3,
      "byteOffset": 115032,
      "componentType": 5126,
      "count": 1897,
      "max": [
        0.02431774139404297,
        0.10981661081314087,
        0.017795413732528687
      ],
      "min": [
        -0.02431774139404297,
        -0.04027402400970459,
        -0.016308709979057312
      ],
      "type": "VEC3"
    },
    {
      "bufferView": 3,
      "byteOffset": 137796,
      "componentType": 5126,
      "count": 1897,
      "max": [
        1.4916212558746338,
        0.8534429669380188,
        0.25686919689178467
      ],
      "min": [
        -1.4916212558746338,
        -1.0967034101486206,
        -0.928885817527771
      ],
      "type": "VEC3"
    },
    {
      "bufferView": 1,
      "byteOffset": 10476,
      "componentType": 5125,
      "count": 7320,
      "type": "SCALAR"
    },
    {
      "bufferView": 3,
      "byteOffset": 160560,
      "componentType": 5126,
      "count": 1877,
      "max": [
        0.6111999154090881,
        1.0151417255401611,
        0.3878864645957947
      ],
      "min": [
        -0.6111999154090881,
        0.07245361059904099,
        -0.4188203513622284
      ],
      "type": "VEC3"
    },
    {
      "bufferView": 3,
      "byteOffset": 183084,
      "componentType": 5126,
      "count": 1877,
      "max": [
        0.9999867677688599,
        1.0,
        0.9999994039535522
      ],
      "min": [
        -0.9999867677688599,
        -0.9986884593963623,
        -0.9993004202842712
      ],
      "type": "VEC3"
    },
    {
      "bufferView": 2,
      "byteOffset": 23168,
      "componentType": 5126,
      "count": 1877,
      "max": [
        0.9598267078399658,
        0.9908757209777832
      ],
      "min": [
        0.009146599099040031,
        0.012552380561828613
      ],
      "type": "VEC2"
    },
    {
      "bufferView": 3,
      "byteOffset": 205608,
      "componentType": 5126,
      "count": 1877,
      "max": [
        0.024850308895111084,
        0.08227527141571045,
        0.0016808509826660156
      ],
      "min": [
        -0.024850308895111084,
        -0.0018705129623413086,
        -0.02490261197090149
      ],
      "type": "VEC3"
    },
    {
      "bufferView": 3,
      "byteOffset": 228132,
      "componentType": 5126,
      "count": 1877,
      "max": [
        0.5001970529556274,
        0.12664884328842163,
        0.33978864550590515
      ],
      "min": [
        -0.5001970529556274,
        -0.5920215845108032,
        -0.6250890493392944
      ],
      "type": "VEC3"
    },
    {
      "bufferView": 3,
      "byteOffset": 250656,
      "componentType": 5126,
      "count": 1877,
      "max": [
        0.024629533290863037,
        0.11070483922958374,
        0.01781010627746582
      ],
      "min": [
        -0.024629533290863037,
        -0.040708720684051514,
        -0.016620159149169922
      ],
      "type": "VEC3"
    },
    {
      "bufferView": 3,
      "byteOffset": 273180,
      "componentType": 5126,
      "count": 1877,
      "max": [
        1.3816112279891968,
        1.0271040201187134,
        1.207417368888855
      ],
      "min": [
        -1.3816112279891968,
        -0.8492550849914551,
        -0.23316359519958496
      ],
      "type": "VEC3"
    },
    {
      "bufferView": 1,
      "byteOffset": 39756,
      "componentType": 5125,
      "count": 7224,
      "type": "SCALAR"
    },
    {
      "bufferView": 3,
      "byteOffset": 295704,
      "componentType": 5126,
      "count": 328,
      "max": [
        0.21066449582576752,
        0.6356818675994873,
        0.33645179867744446
      ],
      "min": [
        -0.21066449582576752,
        0.5293530821800232,
        0.2878205180168152
      ],
      "type": "VEC3"
    },
    {
      "bufferView": 3,
      "byteOffset": 299640,
      "componentType": 5126,
      "count": 328,
      "max": [
        0.8611985445022583,
        0.7029320597648621,
        0.9891416430473328
      ],
      "min": [
        -0.8611985445022583,
        -0.42699846625328064,
        0.47360777854919434
      ],
      "type": "VEC3"
    },
    {
      "bufferView": 2,
      "byteOffset": 38184,
      "componentType": 5126,
      "count": 328,
      "max": [
        0.5696812272071838,
        0.9896126985549927
      ],
      "min": [
        0.009369773790240288,
        0.14029914140701294
      ],
      "type": "VEC2"
    },
    {
      "bufferView": 1,
      "byteOffset": 68652,
      "componentType": 5125,
      "count": 480,
      "type": "SCALAR"
    },
    {
      "bufferView": 3,
      "byteOffset": 303576,
      "componentType": 5126,
      "count": 572,
      "max": [
        0.25921714305877686,
        0.22110678255558014,
        0.13349011540412903
      ],
      "min": [
        -0.25921714305877686,
        0.00010717468103393912,
        -0.13869130611419678
      ],
      "type": "VEC3"
    },
    {
      "bufferView": 3,
      "byteOffset": 310440,
      "componentType": 5126,
      "count": 572,
      "max": [
        0.9994911551475525,
        0.9836832284927368,
        0.9977208375930786
      ],
      "min": [
        -0.9994911551475525,
        -1.0,
        -0.984815776348114
      ],
      "type": "VEC3"
    },
    {
      "bufferView": 2,
      "byteOffset": 40808,
      "componentType": 5126,
      "count": 572,
      "max": [
        0.9563740491867065,
        0.9897207617759705
      ],
      "min": [
        0.04163530841469765,
        0.010557293891906738
      ],
      "type": "VEC2"
    },
    {
      "bufferView": 1,
      "byteOffset": 70572,
      "componentType": 5125,
      "count": 1242,
      "type": "SCALAR"
    },
    {
      "bufferView": 3,
      "byteOffset": 317304,
      "componentType": 5126,
      "count": 542,
      "max": [
        0.26367759704589844,
        0.22110678255558014,
        0.1375565081834793
      ],
      "min": [
        -0.26367759704589844,
        -0.00489282188937068,
        -0.14245173335075378
      ],
      "type": "VEC3"
    },
    {
      "bufferView": 3,
      "byteOffset": 323808,
      "componentType": 5126,
      "count": 542,
      "max": [
        0.9991694688796997,
        0.9999951124191284,
        0.9845649003982544
      ],
      "min": [
        -0.9991694688796997,
        -0.9818453788757324,
        -0.9976657032966614
      ],
      "type": "VEC3"
    },
    {
      "bufferView": 2,
      "byteOffset": 45384,
      "componentType": 5126,
      "count": 542,
      "max": [
        0.9563740491867065,
        0.9897207617759705
      ],
      "min": [
        0.04163530841469765,
        0.010557293891906738
      ],
      "type": "VEC2"
    },
    {
      "bufferView": 1,
      "byteOffset": 75540,
      "componentType": 5125,
      "count": 1134,
      "type": "SCALAR"
    },
    {
      "bufferView": 5,
      "componentType": 5126,
      "count": 18,
      "max": [
        1.0,
        0.8709341883659363,
        0.7149726748466492,
        0.0,
        0.8891803622245789,
        1.0,
        0.7307502627372742,
        0.0,
        0.9999354481697083,
        0.996618390083313,
        1.0,
        0.0,
        0.5590985417366028,
        0.220973402261734,
        0.541283369064331,
        1.0
      ],
      "min": [
        -0.9848078489303589,
        -0.8709343075752258,
        -0.7149726152420044,
        0.0,
        -0.8891803622245789,
        -0.999983549118042,
        -0.9966184496879578,
        0.0,
        -0.9999354481697083,
        -0.735436201095581,
        -0.17039892077445984,
        0.0,
        -0.5590986013412476,
        -0.778098464012146,
        -0.5584223866462708,
        1.0
      ],
      "type": "MAT4"
    },
    {
      "bufferView": 0,
      "componentType": 5123,
      "count": 547,
      "type": "VEC4"
    },
    {
      "bufferView": 4,
      "componentType": 5126,
      "count": 547,
      "max": [
        1.0,
        0.4999958276748657,
        0.15299350023269653,
        0.0
      ],
      "min": [
        0.5000041723251343,
        0.0,
        0.0,
        0.0
      ],
      "type": "VEC4"
    },
    {
      "bufferView": 0,
      "byteOffset": 4376,
      "componentType": 5123,
      "count": 452,
      "type": "VEC4"
    },
    {
      "bufferView": 4,
      "byteOffset": 8752,
      "componentType": 5126,
      "count": 452,
      "max": [
        1.0,
        0.4999958276748657,
        0.15299350023269653,
        0.0
      ],
      "min": [
        0.5000041723251343,
        0.0,
        0.0,
        0.0
      ],
      "type": "VEC4"
    },
    {
      "bufferView": 0,
      "byteOffset": 7992,
      "componentType": 5123,
      "count": 1897,
      "type": "VEC4"
    },
    {
      "bufferView": 4,
      "byteOffset": 15984,
      "componentType": 5126,
      "count": 1897,
      "max": [
        1.0,
        0.5,
        0.27439212799072266,
        0.0
      ],
      "min": [
        0.3760066330432892,
        0.0,
        0.0,
        0.0
      ],
      "type": "VEC4"
    },
    {
      "bufferView": 0,
      "byteOffset": 23168,
      "componentType": 5123,
      "count": 1877,
      "type": "VEC4"
    },
    {
      "bufferView": 4,
      "byteOffset": 46336,
      "componentType": 5126,
      "count": 1877,
      "max": [
        1.0,
        0.5,
        0.27439212799072266,
        0.0
      ],
      "min": [
        0.3760066330432892,
        0.0,
        0.0,
        0.0
      ],
      "type": "VEC4"
    },
    {
      "bufferView": 0,
      "byteOffset": 38184,
      "componentType": 5123,
      "count": 328,
      "type": "VEC4"
    },
    {
      "bufferView": 4,
      "byteOffset": 76368,
      "componentType": 5126,
      "count": 328,
      "max": [
        1.0,
        0.0,
        0.0,
        0.0
      ],
      "min": [
        1.0,
        0.0,
        0.0,
        0.0
      ],
      "type": "VEC4"
    },
    {
      "bufferView": 0,
      "byteOffset": 40808,
      "componentType": 5123,
      "count": 572,
      "type": "VEC4"
    },
    {
      "bufferView": 4,
      "byteOffset": 81616,
      "componentType": 5126,
      "count": 572,
      "max": [
        1.0,
        0.0,
        0.0,
        0.0
      ],
      "min": [
        1.0,
        0.0,
        0.0,
        0.0
      ],
      "type": "VEC4"
    },
    {
      "bufferView": 0,
      "byteOffset": 45384,
      "componentType": 5123,
      "count": 542,
      "type": "VEC4"
    },
    {
      "bufferView": 4,
      "byteOffset": 90768,
      "componentType": 5126,
      "count": 542,
      "max": [
        1.0,
        0.0,
        0.0,
        0.0
      ],
      "min": [
        1.0,
        0.0,
        0.0,
        0.0
      ],
      "type": "VEC4"
    },
    {
      "bufferView": 6,
      "componentType": 5126,
      "count": 40,
      "max": [
        2.0
      ],
      "min": [
        0.0
      ],
      "type": "SCALAR"
    },
    {
      "bufferView": 7,
      "componentType": 5126,
      "count": 40,
      "max": [
        0.00472077913582325,
        0.15424637496471405,
        2.264468390578145e-09
      ],
      "min": [
        0.0,
        0.12696245312690735,
        -4.054410696063826e-10
      ],
      "type": "VEC3"
    },
    {
      "bufferView": 6,
      "byteOffset": 160,
      "componentType": 5126,
      "count": 36,
      "max": [
        2.0
      ],
      "min": [
        0.0
      ],
      "type": "SCALAR"
    },
    {
      "bufferView": 8,
      "componentType": 5126,
      "count": 36,
      "max": [
        -0.001965487143024802,
        7.116880442481488e-05,
        0.032424841076135635,
        0.9999980926513672
      ],
      "min": [
        -0.0019667940214276314,
        -6.365272565744817e-05,
        -0.036120083183050156,
        0.9993455410003662
      ],
      "type": "VEC4"
    },
    {
      "bufferView": 6,
      "byteOffset": 304,
      "componentType": 5126,
      "count": 48,
      "max": [
        2.0
      ],
      "min": [
        0.0
      ],
      "type": "SCALAR"
    },
    {
      "bufferView": 8,
      "byteOffset": 576,
      "componentType": 5126,
      "count": 48,
      "max": [
        0.07406137138605118,
        0.0026788192335516214,
        0.045208726078271866,
        0.9999052286148071
      ],
      "min": [
        -0.06169683113694191,
        -0.0038928096182644367,
        -0.05599631369113922,
        0.9957396388053894
      ],
      "type": "VEC4"
    },
    {
      "bufferView": 6,
      "byteOffset": 496,
      "componentType": 5126,
      "count": 48,
      "max": [
        2.0
      ],
      "min": [
        0.0
      ],
      "type": "SCALAR"
    },
    {
      "bufferView": 8,
      "byteOffset": 1344,
      "componentType": 5126,
      "count": 48,
      "max": [
        -0.1590534746646881,
        0.010396729223430157,
        0.12870508432388306,
        0.9868770241737366
      ],
      "min": [
        -0.21980078518390656,
        -0.02780071087181568,
        -0.10508660972118378,
        0.9754291772842407
      ],
      "type": "VEC4"
    },
    {
      "bufferView": 6,
      "byteOffset": 688,
      "componentType": 5126,
      "count": 48,
      "max": [
        2.0
      ],
      "min": [
        0.0
      ],
      "type": "SCALAR"
    },
    {
      "bufferView": 8,
      "byteOffset": 2112,
      "componentType": 5126,
      "count": 48,
      "max": [
        -0.21828724443912506,
        0.0019202684052288532,
        0.10726554691791534,
        0.9751057624816895
      ],
      "min": [
        -0.27853912115097046,
        -0.03867857903242111,
        -0.07190550118684769,
        0.9600722789764404
      ],
      "type": "VEC4"
    },
    {
      "bufferView": 6,
      "byteOffset": 880,
      "componentType": 5126,
      "count": 48,
      "max": [
        2.0
      ],
      "min": [
        0.0
      ],
      "type": "SCALAR"
    },
    {
      "bufferView": 8,
      "byteOffset": 2880,
      "componentType": 5126,
      "count": 48,
      "max": [
        -0.3985779881477356,
        -0.02311348356306553,
        0.08727134764194489,
        0.9141504764556885
      ],
      "min": [
        -0.45607590675354004,
        -0.07392167299985886,
        -0.028077054768800735,
        0.8879726529121399
      ],
      "type": "VEC4"
    },
    {
      "bufferView": 6,
      "byteOffset": 1072,
      "componentType": 5126,
      "count": 42,
      "max": [
        2.0
      ],
      "min": [
        0.0
      ],
      "type": "SCALAR"
    },
    {
      "bufferView": 8,
      "byteOffset": 3648,
      "componentType": 5126,
      "count": 42,
      "max": [
        0.6548129916191101,
        0.15495209395885468,
        -0.12041281163692474,
        0.7742592096328735
      ],
      "min": [
        0.6016753911972046,
        0.1460685282945633,
        -0.1310472935438156,
        0.7298702001571655
      ],
      "type": "VEC4"
    },
    {
      "bufferView": 6,
      "byteOffset": 1240,
      "componentType": 5126,
      "count": 47,
      "max": [
        2.0
      ],
      "min": [
        0.0
      ],
      "type": "SCALAR"
    },
    {
      "bufferView": 8,
      "byteOffset": 4320,
      "componentType": 5126,
      "count": 47,
      "max": [
        0.6610499024391174,
        -0.14493899047374725,
        0.1322953999042511,
        0.7742592096328735
      ],
      "min": [
        0.6016753911972046,
        -0.15495207905769348,
        0.12041277438402176,
        0.7242262959480286
      ],
      "type": "VEC4"
    },
    {
      "bufferView": 6,
      "byteOffset": 1428,
      "componentType": 5126,
      "count": 48,
      "max": [
        2.0
      ],
      "min": [
        0.0
      ],
      "type": "SCALAR"
    },
    {
      "bufferView": 8,
      "byteOffset": 5072,
      "componentType": 5126,
      "count": 48,
      "max": [
        0.8665598630905151,
        6.091377144912258e-07,
        5.673405780726171e-07,
        0.6450608372688293
      ],
      "min": [
        0.7641311883926392,
        5.071708528703311e-07,
        4.533956143859541e-07,
        0.4990731477737427
      ],
      "type": "VEC4"
    },
    {
      "bufferView": 6,
      "byteOffset": 1620,
      "componentType": 5126,
      "count": 48,
      "max": [
        2.0
      ],
      "min": [
        0.0
      ],
      "type": "SCALAR"
    },
    {
      "bufferView": 8,
      "byteOffset": 5840,
      "componentType": 5126,
      "count": 48,
      "max": [
        0.6764601469039917,
        6.886766641400754e-07,
        6.565679768755217e-07,
        0.8003886938095093
      ],
      "min": [
        0.599481463432312,
        6.173670499265427e-07,
        5.681131369783543e-07,
        0.7364792823791504
      ],
      "type": "VEC4"
    },
    {
      "bufferView": 6,
      "byteOffset": 1812,
      "componentType": 5126,
      "count": 46,
      "max": [
        2.0
      ],
      "min": [
        0.0
      ],
      "type": "SCALAR"
    },
    {
      "bufferView": 8,
      "byteOffset": 6608,
      "componentType": 5126,
      "count": 46,
      "max": [
        -0.07145114988088608,
        0.06172947213053703,
        -0.4834817349910736,
        0.8700954914093018
      ],
      "min": [
        -0.07958842068910599,
        0.05333777144551277,
        -0.5758216977119446,
        0.8119422197341919
      ],
      "type": "VEC4"
    },
    {
      "bufferView": 6,
      "byteOffset": 1996,
      "componentType": 5126,
      "count": 48,
      "max": [
        2.0
      ],
      "min": [
        0.0
      ],
      "type": "SCALAR"
    },
    {
      "bufferView": 8,
      "byteOffset": 7344,
      "componentType": 5126,
      "count": 48,
      "max": [
        -0.11149036884307861,
        0.009041954763233662,
        0.06021177023649216,
        0.9937244057655334
      ],
      "min": [
        -0.11185596883296967,
        -0.005602198652923107,
        -0.06989936530590057,
        0.9912629723548889
      ],
      "type": "VEC4"
    },
    {
      "bufferView": 6,
      "byteOffset": 2188,
      "componentType": 5126,
      "count": 48,
      "max": [
        2.0
      ],
      "min": [
        0.0
      ],
      "type": "SCALAR"
    },
    {
      "bufferView": 8,
      "byteOffset": 8112,
      "componentType": 5126,
      "count": 48,
      "max": [
        -0.07131574302911758,
        -0.055740512907505035,
        0.5507877469062805,
        0.8847147822380066
      ],
      "min": [
        -0.0779244676232338,
        -0.0639788880944252,
        0.45618048310279846,
        0.8291282057762146
      ],
      "type": "VEC4"
    },
    {
      "bufferView": 6,
      "byteOffset": 2380,
      "componentType": 5126,
      "count": 48,
      "max": [
        2.0
      ],
      "min": [
        0.0
      ],
      "type": "SCALAR"
    },
    {
      "bufferView": 8,
      "byteOffset": 8880,
      "componentType": 5126,
      "count": 48,
      "max": [
        -0.11174654960632324,
        -0.0022699336986988783,
        -3.8529339008164243e-07,
        0.9937244057655334
      ],
      "min": [
        -0.1118333637714386,
        -0.00495638232678175,
        -0.02387716807425022,
        0.9934374690055847
      ],
      "type": "VEC4"
    },
    {
      "bufferView": 6,
      "byteOffset": 2572,
      "componentType": 5126,
      "count": 49,
      "max": [
        2.0
      ],
      "min": [
        0.0
      ],
      "type": "SCALAR"
    },
    {
      "bufferView": 8,
      "byteOffset": 9648,
      "componentType": 5126,
      "count": 49,
      "max": [
        -0.3894015848636627,
        -0.20080424845218658,
        -0.38163134455680847,
        0.5948099493980408
      ],
      "min": [
        -0.6825541853904724,
        -0.5906988382339478,
        -0.6739771366119385,
        0.1988775134086609
      ],
      "type": "VEC4"
    },
    {
      "bufferView": 6,
      "byteOffset": 2768,
      "componentType": 5126,
      "count": 49,
      "max": [
        2.0
      ],
      "min": [
        0.0
      ],
      "type": "SCALAR"
    },
    {
      "bufferView": 8,
      "byteOffset": 10432,
      "componentType": 5126,
      "count": 49,
      "max": [
        -0.4546522796154022,
        0.5433574914932251,
        0.6788249015808105,
        0.5465563535690308
      ],
      "min": [
        -0.6873506903648376,
        0.18375056982040405,
        0.44646400213241577,
        0.1816081553697586
      ],
      "type": "VEC4"
    },
    {
      "bufferView": 6,
      "byteOffset": 2964,
      "componentType": 5126,
      "count": 40,
      "max": [
        2.0
      ],
      "min": [
        0.0
      ],
      "type": "SCALAR"
    },
    {
      "bufferView": 7,
      "byteOffset": 480,
      "componentType": 5126,
      "count": 40,
      "max": [
        0.14277063310146332,
        0.094243623316288,
        0.035046108067035675
      ],
      "min": [
        0.1278456300497055,
        0.06686107814311981,
        -0.0015424583107233047
      ],
      "type": "VEC3"
    },
    {
      "bufferView": 6,
      "byteOffset": 3124,
      "componentType": 5126,
      "count": 40,
      "max": [
        2.0
      ],
      "min": [
        0.0
      ],
      "type": "SCALAR"
    },
    {
      "bufferView": 8,
      "byteOffset": 11216,
      "componentType": 5126,
      "count": 40,
      "max": [
        0.08721397072076797,
        7.357956928899512e-05,
        0.9961565732955933,
        0.16810528934001923
      ],
      "min": [
        -0.10518910735845566,
        -0.1332361251115799,
        -0.9961943626403809,
        0.0004190501058474183
      ],
      "type": "VEC4"
    },
    {
      "bufferView": 6,
      "byteOffset": 3284,
      "componentType": 5126,
      "count": 40,
      "max": [
        2.0
      ],
      "min": [
        0.0
      ],
      "type": "SCALAR"
    },
    {
      "bufferView": 7,
      "byteOffset": 960,
      "componentType": 5126,
      "count": 40,
      "max": [
        -0.12628084421157837,
        0.12001121044158936,
        0.06367157399654388
      ],
      "min": [
        -0.1353188008069992,
        0.06799913942813873,
        -0.0013115897309035063
      ],
      "type": "VEC3"
    },
    {
      "bufferView": 6,
      "byteOffset": 3444,
      "componentType": 5126,
      "count": 36,
      "max": [
        2.0
      ],
      "min": [
        0.0
      ],
      "type": "SCALAR"
    },
    {
      "bufferView": 8,
      "byteOffset": 11856,
      "componentType": 5126,
      "count": 36,
      "max": [
        -0.08695335686206818,
        0.27793213725090027,
        0.9961943626403809,
        0.20982910692691803
      ],
      "min": [
        -0.13941454887390137,
        0.0008719543693587184,
        0.9269784688949585,
        0.00041905371472239494
      ],
      "type": "VEC4"
    },
    {
      "bufferView": 6,
      "byteOffset": 3588,
      "componentType": 5126,
      "count": 11,
      "max": [
        2.0
      ],
      "min": [
        0.0
      ],
      "type": "SCALAR"
    },
    {
      "bufferView": 6,
      "byteOffset": 3632,
      "componentType": 5126,
      "count": 22,
      "max": [
        1.0
      ],
      "min": [
        0.0
      ],
      "type": "SCALAR"
    },
    {
      "bufferView": 6,
      "byteOffset": 3720,
      "componentType": 5126,
      "count": 11,
      "max": [
        2.0
      ],
      "min": [
        0.0
      ],
      "type": "SCALAR"
    },
    {
      "bufferView": 6,
      "byteOffset": 3764,
      "componentType": 5126,
      "count": 22,
      "max": [
        1.0
      ],
      "min": [
        0.0
      ],
      "type": "SCALAR"
    }
  ],
  "animations": [
    {
      "channels": [
        {
          "sampler": 0,
          "target": {
            "node": 17,
            "path": "translation"
          }
        },
        {
          "sampler": 1,
          "target": {
            "node": 17,
            "path": "rotation"
          }
        },
        {
          "sampler": 2,
          "target": {
            "node": 18,
            "path": "rotation"
          }
        },
        {
          "sampler": 3,
          "target": {
            "node": 19,
            "path": "rotation"
          }
        },
        {
          "sampler": 4,
          "target": {
            "node": 20,
            "path": "rotation"
          }
        },
        {
          "sampler": 5,
          "target": {
            "node": 21,
            "path": "rotation"
          }
        },
        {
          "sampler": 6,
          "target": {
            "node": 22,
            "path": "rotation"
          }
        },
        {
          "sampler": 7,
          "target": {
            "node": 23,
            "path": "rotation"
          }
        },
        {
          "sampler": 8,
          "target": {
            "node": 24,
            "path": "rotation"
          }
        },
        {
          "sampler": 9,
          "target": {
            "node": 25,
            "path": "rotation"
          }
        },
        {
          "sampler": 10,
          "target": {
            "node": 26,
            "path": "rotation"
          }
        },
        {
          "sampler": 11,
          "target": {
            "node": 27,
            "path": "rotation"
          }
        },
        {
          "sampler": 12,
          "target": {
            "node": 28,
            "path": "rotation"
          }
        },
        {
          "sampler": 13,
          "target": {
            "node": 29,
            "path": "rotation"
          }
        },
        {
          "sampler": 14,
          "target": {
            "node": 30,
            "path": "rotation"
          }
        },
        {
          "sampler": 15,
          "target": {
            "node": 31,
            "path": "rotation"
          }
        },
        {
          "sampler": 16,
          "target": {
            "node": 32,
            "path": "translation"
          }
        },
        {
          "sampler": 17,
          "target": {
            "node": 32,
            "path": "rotation"
          }
        },
        {
          "sampler": 18,
          "target": {
            "node": 33,
            "path": "translation"
          }
        },
        {
          "sampler": 19,
          "target": {
            "node": 33,
            "path": "rotation"
          }
        },
        {
          "sampler": 20,
          "target": {
            "node": 10,
            "path": "weights"
          }
        },
        {
          "sampler": 21,
          "target": {
            "node": 11,
            "path": "weights"
          }
        }
      ],
      "name": "browt_armatureAction.001",
      "samplers": [
        {
          "input": 51,
          "interpolation": "LINEAR",
          "output": 52
        },
        {
          "input": 53,
          "interpolation": "LINEAR",
          "output": 54
        },
        {
          "input": 55,
          "interpolation": "LINEAR",
          "output": 56
        },
        {
          "input": 57,
          "interpolation": "LINEAR",
          "output": 58
        },
        {
          "input": 59,
          "interpolation": "LINEAR",
          "output": 60
        },
        {
          "input": 61,
          "interpolation": "LINEAR",
          "output": 62
        },
        {
          "input": 63,
          "interpolation": "LINEAR",
          "output": 64
        },
        {
          "input": 65,
          "interpolation": "LINEAR",
          "output": 66
        },
        {
          "input": 67,
          "interpolation": "LINEAR",
          "output": 68
        },
        {
          "input": 69,
          "interpolation": "LINEAR",
          "output": 70
        },
        {
          "input": 71,
          "interpolation": "LINEAR",
          "output": 72
        },
        {
          "input": 73,
          "interpolation": "LINEAR",
          "output": 74
        },
        {
          "input": 75,
          "interpolation": "LINEAR",
          "output": 76
        },
        {
          "input": 77,
          "interpolation": "LINEAR",
          "output": 78
        },
        {
          "input": 79,
          "interpolation": "LINEAR",
          "output": 80
        },
        {
          "input": 81,
          "interpolation": "LINEAR",
          "output": 82
        },
        {
          "input": 83,
          "interpolation": "LINEAR",
          "output": 84
        },
        {
          "input": 85,
          "interpolation": "LINEAR",
          "output": 86
        },
        {
          "input": 87,
          "interpolation": "LINEAR",
          "output": 88
        },
        {
          "input": 89,
          "interpolation": "LINEAR",
          "output": 90
        },
        {
          "input": 91,
          "interpolation": "LINEAR",
          "output": 92
        },
        {
          "input": 93,
          "interpolation": "LINEAR",
          "output": 94
        }
      ]
    }
  ],
  "asset": {
    "extras": {
      "author": "Pineopal (https://sketchfab.com/Pineopal)",
      "license": "CC-BY-4.0 (http://creativecommons.org/licenses/by/4.0/)",
      "source": "https://sketchfab.com/3d-models/browt-ed870ecb47f741fd8f047a66742c4c73",
      "title": "Browt"
    },
    "generator": "Sketchfab-17.8.0",
    "version": "2.0"
  },
  "bufferViews": [
    {
      "buffer": 0,
      "byteLength": 49720,
      "byteStride": 8,
      "name": "shortBufferViews",
      "target": 34962
    },
    {
      "buffer": 0,
      "byteLength": 80076,
      "byteOffset": 49720,
      "name": "floatBufferViews",
      "target": 34963
    },
    {
      "buffer": 0,
      "byteLength": 49720,
      "byteOffset": 129796,
      "byteStride": 8,
      "name": "floatBufferViews",
      "target": 34962
    },
    {
      "buffer": 0,
      "byteLength": 330312,
      "byteOffset": 179516,
      "byteStride": 12,
      "name": "floatBufferViews",
      "target": 34962
    },
    {
      "buffer": 0,
      "byteLength": 99440,
      "byteOffset": 509828,
      "byteStride": 16,
      "name": "floatBufferViews",
      "target": 34962
    },
    {
      "buffer": 0,
      "byteLength": 1152,
      "byteOffset": 609268,
      "name": "floatBufferViews"
    },
    {
      "buffer": 0,
      "byteLength": 3852,
      "byteOffset": 610420,
      "name": "floatBufferViews"
    },
    {
      "buffer": 0,
      "byteLength": 1440,
      "byteOffset": 614272,
      "byteStride": 12,
      "name": "floatBufferViews"
    },
    {
      "buffer": 0,
      "byteLength": 12432,
      "byteOffset": 615712,
      "byteStride": 16,
      "name": "floatBufferViews"
    }
  ],
  "buffers": [
    {
      "byteLength": 628144,
      "uri": "scene.bin"
    }
  ],
  "extensionsUsed": [
    "KHR_materials_unlit"
  ],
  "images": [
    {
      "uri": "textures/browt_emissive.png"
    }
  ],
  "materials": [
    {
      "doubleSided": true,
      "emissiveFactor": [
        1.0,
        1.0,
        1.0
      ],
      "emissiveTexture": {
        "index": 0
      },
      "extensions": {
        "KHR_materials_unlit": {}
      },
      "name": "browt",
      "pbrMetallicRoughness": {
        "baseColorFactor": [
          1.0,
          1.0,
          1.0,
          1.0
        ],
        "metallicFactor": 0.0,
        "baseColorTexture": {
          "index": 0
        }
      }
    },
    {
      "extensions": {
        "KHR_materials_unlit": {}
      },
      "name": "Material.001",
      "pbrMetallicRoughness": {
        "baseColorFactor": [
          0.0,
          0.0,
          0.0,
          1.0
        ],
        "metallicFactor": 0.0
      }
    },
    {
      "doubleSided": true,
      "emissiveFactor": [
        1.0,
        1.0,
        1.0
      ],
      "emissiveTexture": {
        "index": 0
      },
      "extensions": {
        "KHR_materials_unlit": {}
      },
      "name": "browt.001",
      "pbrMetallicRoughness": {
        "baseColorFactor": [
          1.0,
          1.0,
          1.0,
          1.0
        ],
        "metallicFactor": 0.0,
        "baseColorTexture": {
          "index": 0
        }
      }
    },
    {
      "extensions": {
        "KHR_materials_unlit": {}
      },
      "name": "Material.002",
      "pbrMetallicRoughness": {
        "baseColorFactor": [
          0.0,
          0.0,
          0.0,
          1.0
        ],
        "metallicFactor": 0.0
      }
    }
  ],
  "meshes": [
    {
      "name": "Object_0",
      "primitives": [
        {
          "attributes": {
            "JOINTS_0": 37,
            "NORMAL": 1,
            "POSITION": 0,
            "TEXCOORD_0": 2,
            "WEIGHTS_0": 38
          },
          "indices": 3,
          "material": 0,
          "mode": 4
        }
      ]
    },
    {
      "name": "Object_1",
      "primitives": [
        {
          "attributes": {
            "JOINTS_0": 39,
            "NORMAL": 5,
            "POSITION": 4,
            "TEXCOORD_0": 6,
            "WEIGHTS_0": 40
          },
          "indices": 7,
          "material": 1,
          "mode": 4
        }
      ]
    },
    {
      "name": "mesh_1",
      "primitives": [
        {
          "attributes": {
            "JOINTS_0": 41,
            "NORMAL": 9,
            "POSITION": 8,
            "TEXCOORD_0": 10,
            "WEIGHTS_0": 42
          },
          "indices": 15,
          "material": 2,
          "mode": 4,
          "targets": [
            {
              "NORMAL": 12,
              "POSITION": 11
            },
            {
              "NORMAL": 14,
              "POSITION": 13
            }
          ]
        }
      ],
      "weights": [
        0.0,
        0.0
      ]
    },
    {
      "name": "mesh_1",
      "primitives": [
        {
          "attributes": {
            "JOINTS_0": 43,
            "NORMAL": 17,
            "POSITION": 16,
            "TEXCOORD_0": 18,
            "WEIGHTS_0": 44
          },
          "indices": 23,
          "material": 3,
          "mode": 4,
          "targets": [
            {
              "NORMAL": 20,
              "POSITION": 19
            },
            {
              "NORMAL": 22,
              "POSITION": 21
            }
          ]
        }
      ],
      "weights": [
        0.0,
        0.0
      ]
    },
    {
      "name": "Object_4",
      "primitives": [
        {
          "attributes": {
            "JOINTS_0": 45,
            "NORMAL": 25,
            "POSITION": 24,
            "TEXCOORD_0": 26,
            "WEIGHTS_0": 46
          },
          "indices": 27,
          "material": 0,
          "mode": 4
        }
      ]
    },
    {
      "name": "Object_5",
      "primitives": [
        {
          "attributes": {
            "JOINTS_0": 47,
            "NORMAL": 29,
            "POSITION": 28,
            "TEXCOORD_0": 30,
            "WEIGHTS_0": 48
          },
          "indices": 31,
          "material": 2,
          "mode": 4
        }
      ]
    },
    {
      "name": "Object_6",
      "primitives": [
        {
          "attributes": {
            "JOINTS_0": 49,
            "NORMAL": 33,
            "POSITION": 32,
            "TEXCOORD_0": 34,
            "WEIGHTS_0": 50
          },
          "indices": 35,
          "material": 3,
          "mode": 4
        }
      ]
    }
  ],
  "nodes": [
    {
      "children": [
        1
      ],
      "matrix": [
        1.0,
        0.0,
        0.0,
        0.0,
        0.0,
        2.220446049250313e-16,
        -1.0,
        0.0,
        0.0,
        1.0,
        2.220446049250313e-16,
        0.0,
        0.0,
        0.0,
        0.0,
        1.0
      ],
      "name": "Sketchfab_model"
    },
    {
      "children": [
        2
      ],
      "name": "root"
    },
    {
      "children": [
        3
      ],
      "matrix": [
        1.0,
        0.0,
        0.0,
        0.0,
        0.0,
        2.220446049250313e-16,
        1.0,
        0.0,
        0.0,
        -1.0,
        2.220446049250313e-16,
        0.0,
        0.0,
        0.0,
        0.0,
        1.0
      ],
      "name": "GLTF_SceneRootNode"
    },
    {
      "children": [
        4
      ],
      "name": "browt_armature_22"
    },
    {
      "children": [
        5,
        7,
        8,
        10,
        11,
        13,
        15,
        16,
        6,
        9,
        12,
        14
      ],
      "name": "GLTF_created_0"
    },
    {
      "children": [
        17
      ],
      "name": "GLTF_created_0_rootJoint"
    },
    {
      "name": "beak_17"
    },
    {
      "mesh": 0,
      "name": "Object_7",
      "skin": 0
    },
    {
      "mesh": 1,
      "name": "Object_8",
      "skin": 0
    },
    {
      "name": "Cube.008_19"
    },
    {
      "mesh": 2,
      "name": "Object_10",
      "skin": 0
    },
    {
      "mesh": 3,
      "name": "Object_11",
      "skin": 0
    },
    {
      "name": "eye_20"
    },
    {
      "mesh": 4,
      "name": "Object_13",
      "skin": 0
    },
    {
      "name": "leg_21"
    },
    {
      "mesh": 5,
      "name": "Object_15",
      "skin": 0
    },
    {
      "mesh": 6,
      "name": "Object_16",
      "skin": 0
    },
    {
      "children": [
        18,
        32,
        33
      ],
      "name": "body_001_16",
      "rotation": [
        -0.0019667702727019787,
        1.238640976453098e-07,
        -2.4360177763860236e-10,
        0.9999980926513672
      ],
      "translation": [
        0.0,
        0.12696245312690735,
        0.0
      ]
    },
    {
      "children": [
        19,
        20,
        21,
        22,
        23,
        24,
        25,
        26,
        28,
        30,
        31
      ],
      "name": "body_002_13",
      "rotation": [
        0.003288657171651721,
        -1.5718347867732518e-07,
        2.9776958676563936e-10,
        0.999994695186615
      ],
      "translation": [
        -1.3032448926454665e-16,
        0.2639447748661041,
        1.1641532182693481e-10
      ]
    },
    {
      "name": "head_001_0",
      "rotation": [
        -0.1611277014017105,
        -0.01042805053293705,
        0.0017026006244122982,
        0.9868770241737366
      ],
      "scale": [
        1.0,
        1.0000001192092896,
        1.0
      ],
      "translation": [
        4.420438681762562e-09,
        0.4554477334022522,
        0.08141110837459564
      ]
    },
    {
      "name": "head_002_1",
      "rotation": [
        -0.2206539660692215,
        -0.021382082253694534,
        0.004838509485125542,
        0.9751057624816895
      ],
      "translation": [
        -8.023424702408022e-10,
        0.46094298362731934,
        -0.019399017095565796
      ]
    },
    {
      "name": "head_003_2",
      "rotation": [
        -0.4020692706108093,
        -0.05166356638073921,
        0.022730154916644096,
        0.9138678908348083
      ],
      "translation": [
        -1.0853768550589393e-08,
        0.4470457434654236,
        -0.10778418928384781
      ]
    },
    {
      "name": "eye.L_3",
      "rotation": [
        0.6016753911972046,
        0.1549520641565323,
        -0.12041284143924713,
        0.7742592096328735
      ],
      "scale": [
        1.0,
        0.9999999403953552,
        1.0
      ],
      "translation": [
        0.1197042390704155,
        0.1652030497789383,
        0.2120743840932846
      ]
    },
    {
      "name": "eye.R_4",
      "rotation": [
        0.6016753911972046,
        -0.1549520343542099,
        0.12041278928518295,
        0.7742592096328735
      ],
      "scale": [
        0.9999999403953552,
        0.9999998807907104,
        1.0
      ],
      "translation": [
        -0.11970420926809311,
        0.1652030497789383,
        0.212074413895607
      ]
    },
    {
      "name": "lower_mouth_5",
      "rotation": [
        0.7641313076019287,
        5.129635383127606e-07,
        5.567288781094248e-07,
        0.6450608372688293
      ],
      "scale": [
        1.0,
        0.9999999403953552,
        1.0
      ],
      "translation": [
        2.3268071913662425e-08,
        0.09908998012542725,
        0.3491610586643219
      ]
    },
    {
      "name": "upper_mouth_6",
      "rotation": [
        0.6764600872993469,
        6.78174501445028e-07,
        5.778273362011532e-07,
        0.7364793419837952
      ],
      "scale": [
        1.0,
        1.0,
        0.9999999403953552
      ],
      "translation": [
        2.3267951121397346e-08,
        0.09908989071846008,
        0.3491610586643219
      ]
    },
    {
      "children": [
        27
      ],
      "name": "brow_001.L_8",
      "rotation": [
        -0.0756395235657692,
        0.05880403146147728,
        -0.5172824859619141,
        0.8504350781440735
      ],
      "scale": [
        1.0000001192092896,
        1.0,
        1.0
      ],
      "translation": [
        0.018347052857279778,
        0.23640236258506775,
        0.36790597438812256
      ]
    },
    {
      "name": "brow_002.L_7",
      "rotation": [
        -0.11183341592550278,
        0.0022699330002069473,
        3.4875708365689206e-07,
        0.9937244057655334
      ],
      "scale": [
        0.9999999403953552,
        0.9999998807907104,
        0.9999999403953552
      ],
      "translation": [
        -9.313225746154785e-09,
        0.19533708691596985,
        -2.60770320892334e-08
      ]
    },
    {
      "children": [
        29
      ],
      "name": "brow_001.R_10",
      "rotation": [
        -0.07563953846693039,
        -0.0588039867579937,
        0.5172824859619141,
        0.8504350781440735
      ],
      "scale": [
        1.0,
        0.9999998807907104,
        1.0
      ],
      "translation": [
        -0.018347004428505898,
        0.23640236258506775,
        0.36790594458580017
      ]
    },
    {
      "name": "brow_002.R_9",
      "rotation": [
        -0.111833356320858,
        -0.0022699490655213594,
        -4.229279966239119e-07,
        0.9937244057655334
      ],
      "scale": [
        1.0,
        0.9999999403953552,
        0.9999999403953552
      ],
      "translation": [
        -6.705522537231445e-08,
        0.19533708691596985,
        -6.705522537231445e-08
      ]
    },
    {
      "name": "wing.L_11",
      "rotation": [
        -0.659148097038269,
        -0.26743218302726746,
        -0.650421142578125,
        0.26637598872184753
      ],
      "scale": [
        0.9999997615814209,
        0.9999999403953552,
        1.0
      ],
      "translation": [
        0.3658670485019684,
        0.03372858464717865,
        0.002047445857897401
      ]
    },
    {
      "name": "wing.R_12",
      "rotation": [
        -0.6591482162475586,
        0.26743221282958984,
        0.650421142578125,
        0.26637598872184753
      ],
      "scale": [
        0.9999997615814209,
        0.9999999403953552,
        1.0
      ],
      "translation": [
        -0.3658670485019684,
        0.03372858464717865,
        0.0020474945195019245
      ]
    },
    {
      "name": "leg.L_14",
      "rotation": [
        -0.0871543288230896,
        -0.000871953961905092,
        -0.9961944222450256,
        0.00041905007674358785
      ],
      "scale": [
        1.0,
        1.000000238418579,
        1.0000001192092896
      ],
      "translation": [
        0.1355195790529251,
        0.09414486587047577,
        -0.0012856036191806197
      ]
    },
    {
      "name": "leg.R_15",
      "rotation": [
        -0.08715452253818512,
        0.000871954660397023,
        0.9961943626403809,
        0.000419049960328266
      ],
      "scale": [
        1.0,
        1.000000238418579,
        1.0
      ],
      "translation": [
        -0.1355195790529251,
        0.09414482116699219,
        -0.0012856695102527738
      ]
    }
  ],
  "samplers": [
    {
      "magFilter": 9729,
      "minFilter": 9987,
      "wrapS": 10497,
      "wrapT": 10497
    }
  ],
  "scene": 0,
  "scenes": [
    {
      "name": "Sketchfab_Scene",
      "nodes": [
        0
      ]
    }
  ],
  "skins": [
    {
      "inverseBindMatrices": 36,
      "joints": [
        5,
        17,
        18,
        19,
        20,
        21,
        22,
        23,
        24,
        25,
        26,
        27,
        28,
        29,
        30,
        31,
        32,
        33
      ],
      "skeleton": 5
    }
  ],
  "textures": [
    {
      "sampler": 0,
      "source": 0
    }
  ]
}