{
  "accessors": [
    {
      "bufferView": 2,
      "componentType": 5126,
      "count": 665,
      "max": [
        3.163750648498535,
        3.4207615852355957,
        1.4735482931137085
      ],
      "min": [
        0.8362493515014648,
        -0.0011621674057096243,
        -1.5503991842269897
      ],
      "type": "VEC3"
    },
    {
      "bufferView": 2,
      "byteOffset": 7980,
      "componentType": 5126,
      "count": 665,
      "type": "VEC3"
    },
    {
      "bufferView": 1,
      "componentType": 5126,
      "count": 665,
      "type": "VEC2"
    },
    {
      "bufferView": 4,
      "componentType": 5123,
      "count": 665,
      "type": "VEC4"
    },
    {
      "bufferView": 3,
      "componentType": 5126,
      "count": 665,
      "type": "VEC4"
    },
    {
      "bufferView": 0,
      "componentType": 5125,
      "count": 2904,
      "type": "SCALAR"
    },
    {
      "bufferView": 2,
      "byteOffset": 15960,
      "componentType": 5126,
      "count": 665,
      "max": [
        -0.8362493515014648,
        3.4207615852355957,
        1.4735482931137085
      ],
      "min": [
        -3.163750648498535,
        -0.0011621674057096243,
        -1.5503991842269897
      ],
      "type": "VEC3"
    },
    {
      "bufferView": 2,
      "byteOffset": 23940,
      "componentType": 5126,
      "count": 665,
      "type": "VEC3"
    },
    {
      "bufferView": 1,
      "byteOffset": 5320,
      "componentType": 5126,
      "count": 665,
      "type": "VEC2"
    },
    {
      "bufferView": 4,
      "byteOffset": 5320,
      "componentType": 5123,
      "count": 665,
      "type": "VEC4"
    },
    {
      "bufferView": 3,
      "byteOffset": 10640,
      "componentType": 5126,
      "count": 665,
      "type": "VEC4"
    },
    {
      "bufferView": 0,
      "byteOffset": 11616,
      "componentType": 5125,
      "count": 2904,
      "type": "SCALAR"
    },
    {
      "bufferView": 5,
      "componentType": 5126,
      "count": 3,
      "type": "MAT4"
    },
    {
      "bufferView": 5,
      "byteOffset": 192,
      "componentType": 5126,
      "count": 3,
      "type": "MAT4"
    },
    {
      "bufferView": 8,
      "componentType": 5126,
      "count": 51,
      "max": [
        3.0833332538604736
      ],
      "min": [
        0.0416666679084301
      ],
      "type": "SCALAR"
    },
    {
      "bufferView": 6,
      "componentType": 5126,
      "count": 51,
      "type": "VEC3"
    },
    {
      "bufferView": 8,
      "byteOffset": 204,
      "componentType": 5126,
      "count": 51,
      "max": [
        3.0833332538604736
      ],
      "min": [
        0.0416666679084301
      ],
      "type": "SCALAR"
    },
    {
      "bufferView": 7,
      "componentType": 5126,
      "count": 51,
      "type": "VEC4"
    },
    {
      "bufferView": 8,
      "byteOffset": 408,
      "componentType": 5126,
      "count": 74,
      "max": [
        3.0833332538604736
      ],
      "min": [
        0.0416666679084301
      ],
      "type": "SCALAR"
    },
    {
      "bufferView": 6,
      "byteOffset": 612,
      "componentType": 5126,
      "count": 74,
      "type": "VEC3"
    },
    {
      "bufferView": 8,
      "byteOffset": 704,
      "componentType": 5126,
      "count": 29,
      "max": [
        3.0833332538604736
      ],
      "min": [
        0.0416666679084301
      ],
      "type": "SCALAR"
    },
    {
      "bufferView": 6,
      "byteOffset": 1500,
      "componentType": 5126,
      "count": 29,
      "type": "VEC3"
    },
    {
      "bufferView": 8,
      "byteOffset": 820,
      "componentType": 5126,
      "count": 29,
      "max": [
        3.0833332538604736
      ],
      "min": [
        0.0416666679084301
      ],
      "type": "SCALAR"
    },
    {
      "bufferView": 7,
      "byteOffset": 816,
      "componentType": 5126,
      "count": 29,
      "type": "VEC4"
    },
    {
      "bufferView": 8,
      "byteOffset": 936,
      "componentType": 5126,
      "count": 14,
      "max": [
        3.0833332538604736
      ],
      "min": [
        0.0416666679084301
      ],
      "type": "SCALAR"
    },
    {
      "bufferView": 6,
      "byteOffset": 1848,
      "componentType": 5126,
      "count": 14,
      "type": "VEC3"
    },
    {
      "bufferView": 8,
      "byteOffset": 992,
      "componentType": 5126,
      "count": 28,
      "max": [
        3.0833332538604736
      ],
      "min": [
        0.0416666679084301
      ],
      "type": "SCALAR"
    },
    {
      "bufferView": 6,
      "byteOffset": 2016,
      "componentType": 5126,
      "count": 28,
      "type": "VEC3"
    },
    {
      "bufferView": 8,
      "byteOffset": 1104,
      "componentType": 5126,
      "count": 28,
      "max": [
        3.0833332538604736
      ],
      "min": [
        0.0416666679084301
      ],
      "type": "SCALAR"
    },
    {
      "bufferView": 7,
      "byteOffset": 1280,
      "componentType": 5126,
      "count": 28,
      "type": "VEC4"
    },
    {
      "bufferView": 8,
      "byteOffset": 1216,
      "componentType": 5126,
      "count": 51,
      "max": [
        3.0833332538604736
      ],
      "min": [
        0.0416666679084301
      ],
      "type": "SCALAR"
    },
    {
      "bufferView": 6,
      "byteOffset": 2352,
      "componentType": 5126,
      "count": 51,
      "type": "VEC3"
    },
    {
      "bufferView": 8,
      "byteOffset": 1420,
      "componentType": 5126,
      "count": 51,
      "max": [
        3.0833332538604736
      ],
      "min": [
        0.0416666679084301
      ],
      "type": "SCALAR"
    },
    {
      "bufferView": 7,
      "byteOffset": 1728,
      "componentType": 5126,
      "count": 51,
      "type": "VEC4"
    },
    {
      "bufferView": 8,
      "byteOffset": 1624,
      "componentType": 5126,
      "count": 74,
      "max": [
        3.0833332538604736
      ],
      "min": [
        0.0416666679084301
      ],
      "type": "SCALAR"
    },
    {
      "bufferView": 6,
      "byteOffset": 2964,
      "componentType": 5126,
      "count": 74,
      "type": "VEC3"
    },
    {
      "bufferView": 8,
      "byteOffset": 1920,
      "componentType": 5126,
      "count": 29,
      "max": [
        3.0833332538604736
      ],
      "min": [
        0.0416666679084301
      ],
      "type": "SCALAR"
    },
    {
      "bufferView": 6,
      "byteOffset": 3852,
      "componentType": 5126,
      "count": 29,
      "type": "VEC3"
    },
    {
      "bufferView": 8,
      "byteOffset": 2036,
      "componentType": 5126,
      "count": 29,
      "max": [
        3.0833332538604736
      ],
      "min": [
        0.0416666679084301
      ],
      "type": "SCALAR"
    },
    {
      "bufferView": 7,
      "byteOffset": 2544,
      "componentType": 5126,
      "count": 29,
      "type": "VEC4"
    },
    {
      "bufferView": 8,
      "byteOffset": 2152,
      "componentType": 5126,
      "count": 14,
      "max": [
        3.0833332538604736
      ],
      "min": [
        0.0416666679084301
      ],
      "type": "SCALAR"
    },
    {
      "bufferView": 6,
      "byteOffset": 4200,
      "componentType": 5126,
      "count": 14,
      "type": "VEC3"
    },
    {
      "bufferView": 8,
      "byteOffset": 2208,
      "componentType": 5126,
      "count": 28,
      "max": [
        3.0833332538604736
      ],
      "min": [
        0.0416666679084301
      ],
      "type": "SCALAR"
    },
    {
      "bufferView": 6,
      "byteOffset": 4368,
      "componentType": 5126,
      "count": 28,
      "type": "VEC3"
    },
    {
      "bufferView": 8,
      "byteOffset": 2320,
      "componentType": 5126,
      "count": 28,
      "max": [
        3.0833332538604736
      ],
      "min": [
        0.0416666679084301
      ],
      "type": "SCALAR"
    },
    {
      "bufferView": 7,
      "byteOffset": 3008,
      "componentType": 5126,
      "count": 28,
      "type": "VEC4"
    }
  ],
  "animations": [
    {
      "channels": [
        {
          "sampler": 0,
          "target": {
            "node": 8,
            "path": "translation"
          }
        },
        {
          "sampler": 1,
          "target": {
            "node": 8,
            "path": "rotation"
          }
        },
        {
          "sampler": 2,
          "target": {
            "node": 8,
            "path": "scale"
          }
        },
        {
          "sampler": 3,
          "target": {
            "node": 9,
            "path": "translation"
          }
        },
        {
          "sampler": 4,
          "target": {
            "node": 9,
            "path": "rotation"
          }
        },
        {
          "sampler": 5,
          "target": {
            "node": 9,
            "path": "scale"
          }
        },
        {
          "sampler": 6,
          "target": {
            "node": 10,
            "path": "translation"
          }
        },
        {
          "sampler": 7,
          "target": {
            "node": 10,
            "path": "rotation"
          }
        },
        {
          "sampler": 8,
          "target": {
            "node": 16,
            "path": "translation"
          }
        },
        {
          "sampler": 9,
          "target": {
            "node": 16,
            "path": "rotation"
          }
        },
        {
          "sampler": 10,
          "target": {
            "node": 16,
            "path": "scale"
          }
        },
        {
          "sampler": 11,
          "target": {
            "node": 17,
            "path": "translation"
          }
        },
        {
          "sampler": 12,
          "target": {
            "node": 17,
            "path": "rotation"
          }
        },
        {
          "sampler": 13,
          "target": {
            "node": 17,
            "path": "scale"
          }
        },
        {
          "sampler": 14,
          "target": {
            "node": 18,
            "path": "translation"
          }
        },
        {
          "sampler": 15,
          "target": {
            "node": 18,
            "path": "rotation"
          }
        }
      ],
      "name": "Animation",
      "samplers": [
        {
          "input": 14,
          "interpolation": "LINEAR",
          "output": 15
        },
        {
          "input": 16,
          "interpolation": "LINEAR",
          "output": 17
        },
        {
          "input": 18,
          "interpolation": "LINEAR",
          "output": 19
        },
        {
          "input": 20,
          "interpolation": "LINEAR",
          "output": 21
        },
        {
          "input": 22,
          "interpolation": "LINEAR",
          "output": 23
        },
        {
          "input": 24,
          "interpolation": "LINEAR",
          "output": 25
        },
        {
          "input": 26,
          "interpolation": "LINEAR",
          "output": 27
        },
        {
          "input": 28,
          "interpolation": "LINEAR",
          "output": 29
        },
        {
          "input": 30,
          "interpolation": "LINEAR",
          "output": 31
        },
        {
          "input": 32,
          "interpolation": "LINEAR",
          "output": 33
        },
        {
          "input": 34,
          "interpolation": "LINEAR",
          "output": 35
        },
        {
          "input": 36,
          "interpolation": "LINEAR",
          "output": 37
        },
        {
          "input": 38,
          "interpolation": "LINEAR",
          "output": 39
        },
        {
          "input": 40,
          "interpolation": "LINEAR",
          "output": 41
        },
        {
          "input": 42,
          "interpolation": "LINEAR",
          "output": 43
        },
        {
          "input": 44,
          "interpolation": "LINEAR",
          "output": 45
        }
      ]
    }
  ],
  "asset": {
    "generator": "fab-model-conversion",
    "version": "2.0"
  },
  "bufferViews": [
    {
      "buffer": 0,
      "byteLength": 23232,
      "target": 34963
    },
    {
      "buffer": 0,
      "byteLength": 10640,
      "byteOffset": 23232,
      "byteStride": 8,
      "target": 34962
    },
    {
      "buffer": 0,
      "byteLength": 31920,
      "byteOffset": 33872,
      "byteStride": 12,
      "target": 34962
    },
    {
      "buffer": 0,
      "byteLength": 21280,
      "byteOffset": 65792,
      "byteStride": 16,
      "target": 34962
    },
    {
      "buffer": 0,
      "byteLength": 10640,
      "byteOffset": 87072,
      "byteStride": 8,
      "target": 34962
    },
    {
      "buffer": 0,
      "byteLength": 384,
      "byteOffset": 97712
    },
    {
      "buffer": 0,
      "byteLength": 4704,
      "byteOffset": 98096
    },
    {
      "buffer": 0,
      "byteLength": 3456,
      "byteOffset": 102800
    },
    {
      "buffer": 0,
      "byteLength": 2432,
      "byteOffset": 106256
    }
  ],
  "buffers": [
    {
      "byteLength": 108688,
      "uri": "scene.bin"
    }
  ],
  "extensionsUsed": [
    "KHR_materials_specular"
  ],
  "images": [
    {
      "uri": "textures/m_duck_baseColor.png"
    },
    {
      "uri": "textures/m_duck_white_baseColor.png"
    }
  ],
  "materials": [
    {
      "doubleSided": true,
      "emissiveFactor": [
        1.0,
        1.0,
        1.0
      ],
      "emissiveTexture": {
        "index": 0
      },
      "extensions": {
        "KHR_materials_specular": {
          "specularColorFactor": [
            1.0,
            1.0,
            1.0
          ],
          "specularFactor": 0.0
        }
      },
      "name": "m_duck",
      "pbrMetallicRoughness": {
        "baseColorTexture": {
          "index": 0
        },
        "metallicFactor": 0.0
      }
    },
    {
      "doubleSided": true,
      "emissiveFactor": [
        1.0,
        1.0,
        1.0
      ],
      "emissiveTexture": {
        "index": 1
      },
      "extensions": {
        "KHR_materials_specular": {
          "specularColorFactor": [
            1.0,
            1.0,
            1.0
          ],
          "specularFactor": 0.0
        }
      },
      "name": "m_duck_white",
      "pbrMetallicRoughness": {
        "baseColorTexture": {
          "index": 1
        },
        "metallicFactor": 0.0
      }
    }
  ],
  "meshes": [
    {
      "name": "Object_0",
      "primitives": [
        {
          "attributes": {
            "JOINTS_0": 3,
            "NORMAL": 1,
            "POSITION": 0,
            "TEXCOORD_0": 2,
            "WEIGHTS_0": 4
          },
          "indices": 5,
          "material": 0,
          "mode": 4
        }
      ]
    },
    {
      "name": "Object_1",
      "primitives": [
        {
          "attributes": {
            "JOINTS_0": 9,
            "NORMAL": 7,
            "POSITION": 6,
            "TEXCOORD_0": 8,
            "WEIGHTS_0": 10
          },
          "indices": 11,
          "material": 1,
          "mode": 4
        }
      ]
    }
  ],
  "nodes": [
    {
      "children": [
        1,
        6,
        14
      ],
      "matrix": [
        1.0,
        0.0,
        0.0,
        0.0,
        0.0,
        2.220446049250313e-16,
        -1.0,
        0.0,
        0.0,
        1.0,
        2.220446049250313e-16,
        0.0,
        0.0,
        0.0,
        0.0,
        1.0
      ],
      "name": "Sketchfab_model"
    },
    {
      "children": [
        2
      ],
      "name": "root"
    },
    {
      "children": [
        3,
        11
      ],
      "matrix": [
        1.0,
        0.0,
        0.0,
        0.0,
        0.0,
        2.220446049250313e-16,
        1.0,
        0.0,
        0.0,
        -1.0,
        2.220446049250313e-16,
        0.0,
        0.0,
        0.0,
        0.0,
        1.0
      ],
      "name": "GLTF_SceneRootNode"
    },
    {
      "children": [
        4
      ],
      "matrix": [
        1.0,
        0.0,
        0.0,
        0.0,
        0.0,
        0.0,
        1.0,
        0.0,
        0.0,
        -1.0,
        0.0,
        0.0,
        2.0,
        0.0,
        0.0,
        1.0
      ],
      "name": "rig_duck_5"
    },
    {
      "children": [
        5,
        7
      ],
      "name": "GLTF_created_0"
    },
    {
      "name": "mesh_duck_4"
    },
    {
      "mesh": 0,
      "name": "Object_6",
      "skin": 0
    },
    {
      "children": [
        8,
        9,
        10
      ],
      "name": "root_3",
      "rotation": [
        -1.0927847071684482e-08,
        -7.549790126404332e-08,
        1.6500590388878324e-15,
        1.0
      ],
      "scale": [
        1.0,
        1.0,
        1.0
      ],
      "translation": [
        0.0,
        0.0,
        0.0
      ]
    },
    {
      "name": "body_0",
      "rotation": [
        -0.7071068286895752,
        5.338508302088485e-08,
        5.338508302088485e-08,
        0.7071067094802856
      ],
      "scale": [
        1.0,
        1.0,
        1.0
      ],
      "translation": [
        -5.232388744502714e-08,
        -1.794799693931539e-30,
        -0.3465254306793213
      ]
    },
    {
      "name": "foot_l_1",
      "rotation": [
        1.0391772775619756e-07,
        -2.0663210875682125e-07,
        -2.1472737528490347e-14,
        1.0
      ],
      "scale": [
        1.0,
        1.0,
        1.0
      ],
      "translation": [
        0.5538027882575989,
        1.8837272664644959e-22,
        -0.18901395797729492
      ]
    },
    {
      "name": "foot_r_2",
      "rotation": [
        1.0391772775619756e-07,
        3.576278402306343e-07,
        3.716386871637986e-14,
        1.0
      ],
      "scale": [
        1.0,
        1.0,
        1.0
      ],
      "translation": [
        -0.5538027882575989,
        1.8837272664644959e-22,
        -0.1890137791633606
      ]
    },
    {
      "children": [
        12
      ],
      "matrix": [
        1.0,
        0.0,
        0.0,
        0.0,
        0.0,
        0.0,
        1.0,
        0.0,
        0.0,
        -1.0,
        0.0,
        0.0,
        -2.0,
        0.0,
        0.0,
        1.0
      ],
      "name": "rig_duck_white_11"
    },
    {
      "children": [
        13,
        15
      ],
      "name": "GLTF_created_1"
    },
    {
      "name": "mesh_duck_white_10"
    },
    {
      "mesh": 1,
      "name": "Object_14",
      "skin": 1
    },
    {
      "children": [
        16,
        17,
        18
      ],
      "name": "root_9",
      "rotation": [
        -1.0927847071684482e-08,
        -7.549790126404332e-08,
        1.6500590388878324e-15,
        1.0
      ],
      "scale": [
        1.0,
        1.0,
        1.0
      ],
      "translation": [
        0.0,
        0.0,
        0.0
      ]
    },
    {
      "name": "body_6",
      "rotation": [
        -0.7071068286895752,
        5.338508302088485e-08,
        5.338508302088485e-08,
        0.7071067094802856
      ],
      "scale": [
        1.0,
        1.0,
        1.0
      ],
      "translation": [
        -5.232388744502714e-08,
        -1.794799693931539e-30,
        -0.3465254306793213
      ]
    },
    {
      "name": "foot_l_7",
      "rotation": [
        1.0391772775619756e-07,
        -2.0663210875682125e-07,
        -2.1472737528490347e-14,
        1.0
      ],
      "scale": [
        1.0,
        1.0,
        1.0
      ],
      "translation": [
        0.5538027882575989,
        1.8837272664644959e-22,
        -0.18901395797729492
      ]
    },
    {
      "name": "foot_r_8",
      "rotation": [
        1.0391772775619756e-07,
        3.576278402306343e-07,
        3.716386871637986e-14,
        1.0
      ],
      "scale": [
        1.0,
        1.0,
        1.0
      ],
      "translation": [
        -0.5538027882575989,
        1.8837272664644959e-22,
        -0.1890137791633606
      ]
    }
  ],
  "samplers": [
    {
      "magFilter": 9729,
      "minFilter": 9987,
      "wrapS": 10497,
      "wrapT": 10497
    }
  ],
  "scene": 0,
  "scenes": [
    {
      "name": "Sketchfab_Scene",
      "nodes": [
        0
      ]
    }
  ],
  "skins": [
    {
      "inverseBindMatrices": 12,
      "joints": [
        8,
        9,
        10
      ]
    },
    {
      "inverseBindMatrices": 13,
      "joints": [
        16,
        17,
        18
      ]
    }
  ],
  "textures": [
    {
      "sampler": 0,
      "source": 0
    },
    {
      "sampler": 0,
      "source": 1
    }
  ]
}
