{
  "accessors": [
    {
      "bufferView": 2,
      "componentType": 5126,
      "count": 1589,
      "max": [
        5.195300102233887,
        2.855299949645996,
        17.250200271606445
      ],
      "min": [
        -5.427999973297119,
        -3.1805999279022217,
        0.9854000210762024
      ],
      "type": "VEC3"
    },
    {
      "bufferView": 2,
      "byteOffset": 19068,
      "componentType": 5126,
      "count": 1589,
      "max": [
        0.9999624490737915,
        0.9985252022743225,
        0.9999874830245972
      ],
      "min": [
        -0.9998239874839783,
        -0.9994117021560669,
        -0.9999244213104248
      ],
      "type": "VEC3"
    },
    {
      "bufferView": 1,
      "componentType": 5126,
      "count": 1589,
      "max": [
        0.9951000213623047,
        1.3697999715805054
      ],
      "min": [
        -0.7788000106811523,
        -0.093299999833107
      ],
      "type": "VEC2"
    },
    {
      "bufferView": 0,
      "componentType": 5125,
      "count": 6078,
      "type": "SCALAR"
    },
    {
      "bufferView": 2,
      "byteOffset": 38136,
      "componentType": 5126,
      "count": 1685,
      "max": [
        5.120999813079834,
        2.3096001148223877,
        11.711799621582031
      ],
      "min": [
        -5.236700057983398,
        -2.706199884414673,
        -1.1292999982833862
      ],
      "type": "VEC3"
    },
    {
      "bufferView": 2,
      "byteOffset": 58356,
      "componentType": 5126,
      "count": 1685,
      "max": [
        1.0,
        0.9995587468147278,
        0.9994406700134277
      ],
      "min": [
        -0.9995924830436707,
        -0.999656617641449,
        -0.9983224868774414
      ],
      "type": "VEC3"
    },
    {
      "bufferView": 1,
      "byteOffset": 12712,
      "componentType": 5126,
      "count": 1685,
      "max": [
        0.9907000064849854,
        0.9866999983787537
      ],
      "min": [
        0.00570000009611249,
        0.009800000116229057
      ],
      "type": "VEC2"
    },
    {
      "bufferView": 0,
      "byteOffset": 24312,
      "componentType": 5125,
      "count": 8694,
      "type": "SCALAR"
    },
    {
      "bufferView": 2,
      "byteOffset": 78576,
      "componentType": 5126,
      "count": 65532,
      "max": [
        2.012500047683716,
        5.577700138092041,
        18.38360023498535
      ],
      "min": [
        -4.166200160980225,
        -2.0436999797821045,
        4.9207000732421875
      ],
      "type": "VEC3"
    },
    {
      "bufferView": 2,
      "byteOffset": 864960,
      "componentType": 5126,
      "count": 65532,
      "max": [
        0.9999665021896362,
        0.9999979734420776,
        0.9999760389328003
      ],
      "min": [
        -0.9999774694442749,
        -0.999958872795105,
        -0.9999830722808838
      ],
      "type": "VEC3"
    },
    {
      "bufferView": 1,
      "byteOffset": 26192,
      "componentType": 5126,
      "count": 65532,
      "max": [
        0.9890999794006348,
        0.9535999894142151
      ],
      "min": [
        0.35580000281333923,
        0.014700000174343586
      ],
      "type": "VEC2"
    },
    {
      "bufferView": 0,
      "byteOffset": 59088,
      "componentType": 5125,
      "count": 378639,
      "type": "SCALAR"
    },
    {
      "bufferView": 2,
      "byteOffset": 1651344,
      "componentType": 5126,
      "count": 32545,
      "max": [
        1.7244999408721924,
        4.1427001953125,
        18.377099990844727
      ],
      "min": [
        -4.166200160980225,
        -2.0423998832702637,
        4.922699928283691
      ],
      "type": "VEC3"
    },
    {
      "bufferView": 2,
      "byteOffset": 2041884,
      "componentType": 5126,
      "count": 32545,
      "max": [
        0.9999736547470093,
        0.962615966796875,
        0.9998645782470703
      ],
      "min": [
        -0.9996781945228577,
        -0.9986488223075867,
        -0.9991167187690735
      ],
      "type": "VEC3"
    },
    {
      "bufferView": 1,
      "byteOffset": 550448,
      "componentType": 5126,
      "count": 32545,
      "max": [
        0.9843000173568726,
        0.9501000046730042
      ],
      "min": [
        0.3582000136375427,
        0.01810000091791153
      ],
      "type": "VEC2"
    },
    {
      "bufferView": 0,
      "byteOffset": 1573644,
      "componentType": 5125,
      "count": 178929,
      "type": "SCALAR"
    },
    {
      "bufferView": 2,
      "byteOffset": 2432424,
      "componentType": 5126,
      "count": 56,
      "max": [
        1.3926000595092773,
        -1.3422000408172607,
        14.276200294494629
      ],
      "min": [
        -1.3430999517440796,
        -2.447499990463257,
        12.944600105285645
      ],
      "type": "VEC3"
    },
    {
      "bufferView": 2,
      "byteOffset": 2433096,
      "componentType": 5126,
      "count": 56,
      "max": [
        0.9807840585708618,
        -0.029299326241016388,
        0.025400275364518166
      ],
      "min": [
        -0.988777220249176,
        -0.6998230218887329,
        -0.6233869791030884
      ],
      "type": "VEC3"
    },
    {
      "bufferView": 1,
      "byteOffset": 810808,
      "componentType": 5126,
      "count": 56,
      "max": [
        0.9739999771118164,
        0.9472000002861023
      ],
      "min": [
        0.023399999365210533,
        0.01640000008046627
      ],
      "type": "VEC2"
    },
    {
      "bufferView": 0,
      "byteOffset": 2289360,
      "componentType": 5125,
      "count": 258,
      "type": "SCALAR"
    },
    {
      "bufferView": 2,
      "byteOffset": 2433768,
      "componentType": 5126,
      "count": 967,
      "max": [
        1.8916000127792358,
        1.1009999513626099,
        16.710599899291992
      ],
      "min": [
        -1.7121000289916992,
        -2.617300033569336,
        10.085599899291992
      ],
      "type": "VEC3"
    },
    {
      "bufferView": 2,
      "byteOffset": 2445372,
      "componentType": 5126,
      "count": 967,
      "max": [
        0.9997444748878479,
        0.9998379349708557,
        0.993298351764679
      ],
      "min": [
        -0.9992716312408447,
        -0.9999995231628418,
        -0.9986290335655212
      ],
      "type": "VEC3"
    },
    {
      "bufferView": 1,
      "byteOffset": 811256,
      "componentType": 5126,
      "count": 967,
      "max": [
        0.9973000288009644,
        0.9871000051498413
      ],
      "min": [
        0.009800000116229057,
        0.009200000204145908
      ],
      "type": "VEC2"
    },
    {
      "bufferView": 0,
      "byteOffset": 2290392,
      "componentType": 5125,
      "count": 5229,
      "type": "SCALAR"
    },
    {
      "bufferView": 2,
      "byteOffset": 2456976,
      "componentType": 5126,
      "count": 76,
      "max": [
        1.9229999780654907,
        -0.8356000185012817,
        14.757699966430664
      ],
      "min": [
        -1.795199990272522,
        -3.093899965286255,
        11.883000373840332
      ],
      "type": "VEC3"
    },
    {
      "bufferView": 2,
      "byteOffset": 2457888,
      "componentType": 5126,
      "count": 76,
      "max": [
        0.9484106302261353,
        0.8953149318695068,
        0.4555903375148773
      ],
      "min": [
        -0.9484106302261353,
        -0.8953149318695068,
        -0.4555903375148773
      ],
      "type": "VEC3"
    },
    {
      "bufferView": 1,
      "byteOffset": 818992,
      "componentType": 5126,
      "count": 76,
      "max": [
        0.8044999837875366,
        0.848800003528595
      ],
      "min": [
        0.12489999830722809,
        0.18129999935626984
      ],
      "type": "VEC2"
    },
    {
      "bufferView": 0,
      "byteOffset": 2311308,
      "componentType": 5125,
      "count": 216,
      "type": "SCALAR"
    }
  ],
  "asset": {
    "extras": {
      "author": "projectmgame (https://sketchfab.com/projectmgame)",
      "license": "CC-BY-4.0 (http://creativecommons.org/licenses/by/4.0/)",
      "source": "https://sketchfab.com/3d-models/armored-mewtwo-c6b33181a5f149228be85be2d92c8e57",
      "title": "Armored Mewtwo"
    },
    "generator": "Sketchfab-12.66.0",
    "version": "2.0"
  },
  "bufferViews": [
    {
      "buffer": 0,
      "byteLength": 2312172,
      "name": "floatBufferViews",
      "target": 34963
    },
    {
      "buffer": 0,
      "byteLength": 819600,
      "byteOffset": 2312172,
      "byteStride": 8,
      "name": "floatBufferViews",
      "target": 34962
    },
    {
      "buffer": 0,
      "byteLength": 2458800,
      "byteOffset": 3131772,
      "byteStride": 12,
      "name": "floatBufferViews",
      "target": 34962
    }
  ],
  "buffers": [
    {
      "byteLength": 5590572,
      "uri": "scene.bin"
    }
  ],
  "images": [
    {
      "uri": "textures/Armor_baseColor.png"
    },
    {
      "uri": "textures/Body_baseColor.png"
    },
    {
      "uri": "textures/material_baseColor.png"
    },
    {
      "uri": "textures/Head_baseColor.png"
    },
    {
      "uri": "textures/Visor_baseColor.png"
    }
  ],
  "materials": [
    {
      "name": "Armor",
      "pbrMetallicRoughness": {
        "baseColorTexture": {
          "index": 0
        },
        "metallicFactor": 0.0,
        "roughnessFactor": 0.6
      }
    },
    {
      "doubleSided": true,
      "name": "Body",
      "pbrMetallicRoughness": {
        "baseColorTexture": {
          "index": 1
        },
        "metallicFactor": 0.0,
        "roughnessFactor": 0.6
      }
    },
    {
      "doubleSided": true,
      "emissiveFactor": [
        1.0,
        1.0,
        1.0
      ],
      "emissiveTexture": {
        "index": 2
      },
      "name": "material",
      "pbrMetallicRoughness": {
        "baseColorTexture": {
          "index": 2
        },
        "metallicFactor": 0.0,
        "roughnessFactor": 0.6
      }
    },
    {
      "doubleSided": true,
      "name": "Head",
      "pbrMetallicRoughness": {
        "baseColorTexture": {
          "index": 3
        },
        "metallicFactor": 0.0,
        "roughnessFactor": 0.6
      }
    },
    {
      "alphaMode": "BLEND",
      "name": "Visor",
      "pbrMetallicRoughness": {
        "baseColorTexture": {
          "index": 4
        },
        "metallicFactor": 0.0,
        "roughnessFactor": 0.6
      }
    }
  ],
  "meshes": [
    {
      "name": "Object_0",
      "primitives": [
        {
          "attributes": {
            "NORMAL": 1,
            "POSITION": 0,
            "TEXCOORD_0": 2
          },
          "indices": 3,
          "material": 0,
          "mode": 4
        }
      ]
    },
    {
      "name": "Object_1",
      "primitives": [
        {
          "attributes": {
            "NORMAL": 5,
            "POSITION": 4,
            "TEXCOORD_0": 6
          },
          "indices": 7,
          "material": 1,
          "mode": 4
        }
      ]
    },
    {
      "name": "Object_2",
      "primitives": [
        {
          "attributes": {
            "NORMAL": 9,
            "POSITION": 8,
            "TEXCOORD_0": 10
          },
          "indices": 11,
          "material": 1,
          "mode": 4
        }
      ]
    },
    {
      "name": "Object_3",
      "primitives": [
        {
          "attributes": {
            "NORMAL": 13,
            "POSITION": 12,
            "TEXCOORD_0": 14
          },
          "indices": 15,
          "material": 1,
          "mode": 4
        }
      ]
    },
    {
      "name": "Object_4",
      "primitives": [
        {
          "attributes": {
            "NORMAL": 17,
            "POSITION": 16,
            "TEXCOORD_0": 18
          },
          "indices": 19,
          "material": 2,
          "mode": 4
        }
      ]
    },
    {
      "name": "Object_5",
      "primitives": [
        {
          "attributes": {
            "NORMAL": 21,
            "POSITION": 20,
            "TEXCOORD_0": 22
          },
          "indices": 23,
          "material": 3,
          "mode": 4
        }
      ]
    },
    {
      "name": "Object_6",
      "primitives": [
        {
          "attributes": {
            "NORMAL": 25,
            "POSITION": 24,
            "TEXCOORD_0": 26
          },
          "indices": 27,
          "material": 4,
          "mode": 4
        }
      ]
    }
  ],
  "nodes": [
    {
      "children": [
        1
      ],
      "matrix": [
        1.0,
        0.0,
        0.0,
        0.0,
        0.0,
        2.220446049250313e-16,
        -1.0,
        0.0,
        0.0,
        1.0,
        2.220446049250313e-16,
        0.0,
        0.0,
        0.0,
        0.0,
        1.0
      ],
      "name": "Sketchfab_model"
    },
    {
      "children": [
        2,
        3,
        4,
        5,
        6,
        7,
        8
      ],
      "name": "259072a69342457791d5061e340f7f9b.obj.cleaner"
    },
    {
      "mesh": 0,
      "name": "Object_2"
    },
    {
      "mesh": 1,
      "name": "Object_3"
    },
    {
      "mesh": 2,
      "name": "Object_4"
    },
    {
      "mesh": 3,
      "name": "Object_5"
    },
    {
      "mesh": 4,
      "name": "Object_6"
    },
    {
      "mesh": 5,
      "name": "Object_7"
    },
    {
      "mesh": 6,
      "name": "Object_8"
    }
  ],
  "samplers": [
    {
      "magFilter": 9729,
      "minFilter": 9987,
      "wrapS": 10497,
      "wrapT": 10497
    }
  ],
  "scene": 0,
  "scenes": [
    {
      "name": "Sketchfab_Scene",
      "nodes": [
        0
      ]
    }
  ],
  "textures": [
    {
      "sampler": 0,
      "source": 0
    },
    {
      "sampler": 0,
      "source": 1
    },
    {
      "sampler": 0,
      "source": 2
    },
    {
      "sampler": 0,
      "source": 3
    },
    {
      "sampler": 0,
      "source": 4
    }
  ]
}
